<?xml version="1.0" encoding="UTF-8"?>
<svg width="4000px" height="4000px" viewBox="0 0 4000 4000" version="1.1" xmlns="http://www.w3.org/2000/svg" xmlns:xlink="http://www.w3.org/1999/xlink">
    <!-- Generator: Sketch 63.1 (92452) - https://sketch.com -->
    <title>Combined Shape</title>
    <desc>Created with Sketch.</desc>
    <g id="Page-1" stroke="none" stroke-width="1" fill="none" fill-rule="evenodd" fill-opacity="0.9">
        <path d="M4000,0 L4000,4000 L0,4000 L0,0 L4000,0 Z M1526.955,1964.5 L1511.925,1964.5 C1505.805,1964.5 1505.805,1964.5 1501.35,1968.91 C1497.0435,1973.173 1497.0435,1973.173 1496.89995,1979.118 L1496.895,1979.53 L1496.895,2032 L1511.925,2032 L1511.925,2002.03 L1526.955,2002.03 L1526.955,2032 L1541.895,2032 L1541.895,1979.53 C1541.895,1973.41 1541.895,1973.41 1537.485,1968.955 C1533.222,1964.6485 1533.222,1964.6485 1527.3611,1964.50495 L1526.955,1964.5 Z M2479.605,1964.5 L2464.575,1964.5 L2464.575,2032 L2502.105,2032 L2502.105,2024.53 L2479.605,2024.53 L2479.605,1964.5 Z M1609.485,1964.5 L1579.425,1964.5 L1579.425,2032 L1594.455,2032 L1594.455,2002.03 L1609.485,2002.03 C1615.605,2002.03 1615.605,2002.03 1620.015,1997.575 C1624.278,1993.2685 1624.278,1993.2685 1624.4201,1987.40615 L1624.425,1987 L1624.425,1979.53 C1624.425,1973.41 1624.425,1973.41 1620.015,1968.955 C1615.752,1964.6485 1615.752,1964.6485 1609.8911,1964.50495 L1609.485,1964.5 Z M2434.605,1964.5 L2419.575,1964.5 C2413.455,1964.5 2413.455,1964.5 2409,1968.91 C2404.6935,1973.173 2404.6935,1973.173 2404.54995,1979.118 L2404.545,1979.53 L2404.545,2032 L2419.575,2032 L2419.575,2002.03 L2434.605,2002.03 L2434.605,2032 L2449.545,2032 L2449.545,1979.53 C2449.545,1973.41 2449.545,1973.41 2445.135,1968.955 C2440.872,1964.6485 2440.872,1964.6485 2435.0111,1964.50495 L2434.605,1964.5 Z M1669.515,1964.5 L1639.455,1964.5 L1639.455,2032 L1654.485,2032 L1654.485,2002.03 L1661.955,2002.03 C1665.105,2002.03 1665.105,2002.03 1667.31,2004.235 C1669.39895,2006.32395 1669.39895,2006.32395 1669.50889,2009.18026 L1669.515,2009.5 L1669.515,2032 L1684.455,2032 L1684.455,2005.45 C1684.455,2002.3 1684.455,2002.3 1682.25,2000.095 C1680.16105,1998.00605 1680.16105,1998.00605 1677.30474,1997.89611 L1676.985,1997.89 L1669.515,1997.89 C1677.615,1997.89 1677.615,1997.89 1681.035,1993.255 C1684.3182,1988.8054 1684.3182,1988.8054 1684.44953,1983.98255 L1684.455,1983.58 L1684.455,1979.53 C1684.455,1973.41 1684.455,1973.41 1680.045,1968.955 C1675.782,1964.6485 1675.782,1964.6485 1669.9211,1964.50495 L1669.515,1964.5 Z M1729.545,1964.5 L1714.515,1964.5 C1708.395,1964.5 1708.395,1964.5 1703.94,1968.91 C1699.6335,1973.173 1699.6335,1973.173 1699.48995,1979.118 L1699.485,1979.53 L1699.485,2016.97 C1699.485,2023.18 1699.485,2023.18 1703.94,2027.59 C1708.2465,2031.853 1708.2465,2031.853 1714.10885,2031.9951 L1714.515,2032 L1729.545,2032 C1735.665,2032 1735.665,2032 1740.075,2027.545 C1744.338,2023.2385 1744.338,2023.2385 1744.4801,2017.37615 L1744.485,2016.97 L1744.485,1979.53 C1744.485,1973.41 1744.485,1973.41 1740.075,1968.955 C1735.812,1964.6485 1735.812,1964.6485 1729.9511,1964.50495 L1729.545,1964.5 Z M2359.545,1964.5 L2344.515,1964.5 L2344.515,2032 L2363.955,2032 C2374.485,2032 2374.485,2032 2382,2024.44 C2389.34023,2017.05581 2389.34023,2017.05581 2389.51094,2006.83816 L2389.515,2006.35 L2389.515,1964.5 L2374.575,1964.5 L2374.575,2016.97 C2374.575,2020.03 2374.575,2020.03 2372.37,2022.28 C2370.28105,2024.41158 2370.28105,2024.41158 2367.34396,2024.52377 L2367.015,2024.53 L2359.545,2024.53 L2359.545,1964.5 Z M1789.575,1964.5 L1759.515,1964.5 L1759.515,2032 L1774.545,2032 L1774.545,2002.03 L1789.575,2002.03 C1795.695,2002.03 1795.695,2002.03 1800.105,1997.575 C1804.368,1993.2685 1804.368,1993.2685 1804.5101,1987.40615 L1804.515,1987 L1804.515,1979.53 C1804.515,1973.41 1804.515,1973.41 1800.105,1968.955 C1795.842,1964.6485 1795.842,1964.6485 1789.9811,1964.50495 L1789.575,1964.5 Z M2322.015,1964.5 L2307.075,1964.5 L2307.075,2032 L2322.015,2032 L2322.015,1964.5 Z M1849.605,1964.5 L1834.575,1964.5 C1828.455,1964.5 1828.455,1964.5 1824,1968.91 C1819.6935,1973.173 1819.6935,1973.173 1819.54995,1979.118 L1819.545,1979.53 L1819.545,2016.97 C1819.545,2023.18 1819.545,2023.18 1824,2027.59 C1828.3065,2031.853 1828.3065,2031.853 1834.16885,2031.9951 L1834.575,2032 L1849.605,2032 C1855.725,2032 1855.725,2032 1860.135,2027.545 C1864.398,2023.2385 1864.398,2023.2385 1864.5401,2017.37615 L1864.545,2016.97 L1864.545,1979.53 C1864.545,1973.41 1864.545,1973.41 1860.135,1968.955 C1855.872,1964.6485 1855.872,1964.6485 1850.0111,1964.50495 L1849.605,1964.5 Z M2292.045,1964.5 L2247.045,1964.5 L2247.045,1971.97 L2262.075,1971.97 L2262.075,2032 L2277.015,2032 L2277.015,1971.97 L2292.045,1971.97 L2292.045,1964.5 Z M2224.545,1964.5 L2217.075,1964.5 C2210.865,1964.5 2210.865,1964.5 2206.455,1968.955 C2202.192,1973.2615 2202.192,1973.2615 2202.0499,1979.12385 L2202.045,1979.53 L2202.045,1983.22 C2202.045,1988.78138 2202.045,1988.78138 2206.15611,1993.50376 L2206.455,1993.84 L2222.385,2011.66 C2224.545,2014.09 2224.545,2014.09 2224.545,2016.97 C2224.545,2020.66 2224.545,2020.66 2222.79,2022.595 C2221.035,2024.53 2221.035,2024.53 2217.075,2024.53 C2214.285,2024.53 2214.285,2024.53 2211.945,2022.91 C2209.71643,2021.36714 2209.71643,2021.36714 2209.61031,2018.51816 L2209.605,2018.23 L2209.605,2016.97 L2202.045,2016.97 C2202.045,2024.53 2202.045,2024.53 2205.825,2028.265 C2209.48306,2031.87952 2209.48306,2031.87952 2216.5969,2031.99611 L2217.075,2032 L2224.545,2032 C2230.755,2032 2230.755,2032 2235.165,2027.545 C2239.428,2023.2385 2239.428,2023.2385 2239.5701,2017.37615 L2239.575,2016.97 L2239.575,2013.28 C2239.575,2007.80552 2239.575,2007.80552 2235.46389,2003.00224 L2235.165,2002.66 L2219.235,1984.84 C2217.075,1982.32 2217.075,1982.32 2217.075,1979.53 C2217.075,1975.75 2217.075,1975.75 2219.055,1973.86 C2221.035,1971.97 2221.035,1971.97 2224.995,1971.97 C2230.98196,1971.97 2230.98196,1971.97 2232.05953,1979.20488 L2232.105,1979.53 L2239.575,1979.53 C2238.687,1964.7004 2238.687,1964.7004 2224.91945,1964.50267 L2224.545,1964.5 Z M2187.105,1964.5 L2149.575,1964.5 L2149.575,2032 L2187.105,2032 L2187.105,2024.53 L2164.605,2024.53 L2164.605,2002.03 L2179.635,2002.03 L2179.635,1994.47 L2164.605,1994.47 L2164.605,1971.97 L2187.105,1971.97 L2187.105,1964.5 Z M2029.605,1964.5 L2014.575,1964.5 L2014.575,2016.97 C2014.575,2023.18 2014.575,2023.18 2019.03,2027.59 C2023.3365,2031.853 2023.3365,2031.853 2029.19885,2031.9951 L2029.605,2032 L2044.635,2032 C2050.755,2032 2050.755,2032 2055.165,2027.545 C2059.428,2023.2385 2059.428,2023.2385 2059.5701,2017.37615 L2059.575,2016.97 L2059.575,1964.5 L2044.635,1964.5 L2044.635,2016.97 C2044.635,2020.03 2044.635,2020.03 2042.43,2022.28 C2040.225,2024.53 2040.225,2024.53 2037.075,2024.53 C2034.015,2024.53 2034.015,2024.53 2031.81,2022.28 C2029.72105,2020.14842 2029.72105,2020.14842 2029.61111,2017.28986 L2029.605,2016.97 L2029.605,1964.5 Z M2134.635,1964.5 L2097.105,1964.5 L2097.105,2032 L2112.135,2032 L2112.135,2002.03 L2127.165,2002.03 L2127.165,1994.47 L2112.135,1994.47 L2112.135,1971.97 L2134.635,1971.97 L2134.635,1964.5 Z M1984.605,1964.5 L1954.545,1964.5 L1954.545,2032 L1984.605,2032 C1990.725,2032 1990.725,2032 1995.135,2027.545 C1999.398,2023.2385 1999.398,2023.2385 1999.5401,2017.37615 L1999.545,2016.97 L1999.545,1979.53 C1999.545,1973.41 1999.545,1973.41 1995.135,1968.955 C1990.872,1964.6485 1990.872,1964.6485 1985.0111,1964.50495 L1984.605,1964.5 Z M1902.075,1964.5 L1894.605,1964.5 C1888.395,1964.5 1888.395,1964.5 1883.985,1968.955 C1879.722,1973.2615 1879.722,1973.2615 1879.5799,1979.12385 L1879.575,1979.53 L1879.575,1983.22 C1879.575,1988.78138 1879.575,1988.78138 1883.68611,1993.50376 L1883.985,1993.84 L1899.915,2011.66 C1902.075,2014.09 1902.075,2014.09 1902.075,2016.97 C1902.075,2020.66 1902.075,2020.66 1900.32,2022.595 C1898.565,2024.53 1898.565,2024.53 1894.605,2024.53 C1891.815,2024.53 1891.815,2024.53 1889.475,2022.91 C1887.24643,2021.36714 1887.24643,2021.36714 1887.14031,2018.51816 L1887.135,2018.23 L1887.135,2016.97 L1879.575,2016.97 C1879.575,2024.53 1879.575,2024.53 1883.355,2028.265 C1887.01306,2031.87952 1887.01306,2031.87952 1894.1269,2031.99611 L1894.605,2032 L1902.075,2032 C1908.285,2032 1908.285,2032 1912.695,2027.545 C1916.958,2023.2385 1916.958,2023.2385 1917.1001,2017.37615 L1917.105,2016.97 L1917.105,2013.28 C1917.105,2007.80552 1917.105,2007.80552 1912.99389,2003.00224 L1912.695,2002.66 L1896.765,1984.84 C1894.605,1982.32 1894.605,1982.32 1894.605,1979.53 C1894.605,1975.75 1894.605,1975.75 1896.585,1973.86 C1898.565,1971.97 1898.565,1971.97 1902.525,1971.97 C1908.51196,1971.97 1908.51196,1971.97 1909.58953,1979.20488 L1909.635,1979.53 L1917.105,1979.53 C1916.217,1964.7004 1916.217,1964.7004 1902.44945,1964.50267 L1902.075,1964.5 Z M1977.045,1971.97 C1980.195,1971.97 1980.195,1971.97 1982.4,1974.175 C1984.48895,1976.26395 1984.48895,1976.26395 1984.59889,1979.20104 L1984.605,1979.53 L1984.605,2016.97 C1984.605,2020.03 1984.605,2020.03 1982.4,2022.28 C1980.195,2024.53 1980.195,2024.53 1977.045,2024.53 L1969.575,2024.53 L1969.575,1971.97 L1977.045,1971.97 Z M1842.045,1971.97 C1845.195,1971.97 1845.195,1971.97 1847.4,1974.175 C1849.48895,1976.26395 1849.48895,1976.26395 1849.59889,1979.20104 L1849.605,1979.53 L1849.605,2016.97 C1849.605,2020.03 1849.605,2020.03 1847.4,2022.28 C1845.195,2024.53 1845.195,2024.53 1842.045,2024.53 C1838.985,2024.53 1838.985,2024.53 1836.78,2022.28 C1834.69105,2020.14842 1834.69105,2020.14842 1834.58111,2017.28986 L1834.575,2016.97 L1834.575,1979.53 C1834.575,1976.38 1834.575,1976.38 1836.78,1974.175 C1838.985,1971.97 1838.985,1971.97 1842.045,1971.97 Z M1721.985,1971.97 C1725.135,1971.97 1725.135,1971.97 1727.34,1974.175 C1729.42895,1976.26395 1729.42895,1976.26395 1729.53889,1979.20104 L1729.545,1979.53 L1729.545,2016.97 C1729.545,2020.03 1729.545,2020.03 1727.34,2022.28 C1725.135,2024.53 1725.135,2024.53 1721.985,2024.53 C1718.925,2024.53 1718.925,2024.53 1716.72,2022.28 C1714.63105,2020.14842 1714.63105,2020.14842 1714.52111,2017.28986 L1714.515,2016.97 L1714.515,1979.53 C1714.515,1976.38 1714.515,1976.38 1716.72,1974.175 C1718.925,1971.97 1718.925,1971.97 1721.985,1971.97 Z M1782.015,1971.97 C1785.165,1971.97 1785.165,1971.97 1787.37,1974.175 C1789.45895,1976.26395 1789.45895,1976.26395 1789.56889,1979.20104 L1789.575,1979.53 L1789.575,1987 C1789.575,1990.06 1789.575,1990.06 1787.37,1992.265 C1785.165,1994.47 1785.165,1994.47 1782.015,1994.47 L1774.545,1994.47 L1774.545,1971.97 L1782.015,1971.97 Z M1661.955,1971.97 C1665.105,1971.97 1665.105,1971.97 1667.31,1974.175 C1669.39895,1976.26395 1669.39895,1976.26395 1669.50889,1979.20104 L1669.515,1979.53 L1669.515,1987 C1669.515,1990.06 1669.515,1990.06 1667.31,1992.265 C1665.105,1994.47 1665.105,1994.47 1661.955,1994.47 L1654.485,1994.47 L1654.485,1971.97 L1661.955,1971.97 Z M1601.925,1971.97 C1605.075,1971.97 1605.075,1971.97 1607.28,1974.175 C1609.36895,1976.26395 1609.36895,1976.26395 1609.47889,1979.20104 L1609.485,1979.53 L1609.485,1987 C1609.485,1990.06 1609.485,1990.06 1607.28,1992.265 C1605.075,1994.47 1605.075,1994.47 1601.925,1994.47 L1594.455,1994.47 L1594.455,1971.97 L1601.925,1971.97 Z M2427.045,1971.97 C2430.195,1971.97 2430.195,1971.97 2432.4,1974.175 C2434.48895,1976.26395 2434.48895,1976.26395 2434.59889,1979.20104 L2434.605,1979.53 L2434.605,1994.47 L2419.575,1994.47 L2419.575,1979.53 C2419.575,1976.38 2419.575,1976.38 2421.78,1974.175 C2423.985,1971.97 2423.985,1971.97 2427.045,1971.97 Z M1519.395,1971.97 C1522.545,1971.97 1522.545,1971.97 1524.75,1974.175 C1526.83895,1976.26395 1526.83895,1976.26395 1526.94889,1979.20104 L1526.955,1979.53 L1526.955,1994.47 L1511.925,1994.47 L1511.925,1979.53 C1511.925,1976.38 1511.925,1976.38 1514.13,1974.175 C1516.335,1971.97 1516.335,1971.97 1519.395,1971.97 Z" id="Combined-Shape" fill="#E9E9E9"></path>
    </g>
</svg>