<?xml version="1.0" encoding="UTF-8"?>
<svg width="4000px" height="4000px" viewBox="0 0 4000 4000" version="1.1" xmlns="http://www.w3.org/2000/svg" xmlns:xlink="http://www.w3.org/1999/xlink">
    <!-- Generator: Sketch 63.1 (92452) - https://sketch.com -->
    <title>Combined Shape</title>
    <desc>Created with Sketch.</desc>
    <g id="Page-1" stroke="none" stroke-width="1" fill="none" fill-rule="evenodd">
        <path d="M4000,0 L4000,4000 L0,4000 L0,0 L4000,0 Z M1839.72168,1962.29102 L1819.7998,1962.29102 L1807.2998,2024.83984 L1803.54004,2024.83984 L1803.54004,2039 L1825.85449,2039 L1825.85449,2024.83984 L1821.75293,2024.83984 L1822.97363,2018.63867 L1836.54785,2018.63867 L1837.76855,2024.83984 L1833.76465,2024.83984 L1833.76465,2039 L1856.0791,2039 L1856.0791,2024.83984 L1852.22168,2024.83984 L1839.72168,1962.29102 Z M1924.92676,1962.29102 L1887.3291,1962.29102 L1887.3291,1976.45117 L1891.38184,1976.45117 L1891.38184,2024.83984 L1887.3291,2024.83984 L1887.3291,2039 L1909.64355,2039 L1909.64355,2024.83984 L1905.54199,2024.83984 L1905.54199,2012.97461 L1924.92676,2012.97461 L1934.10645,2004.82031 L1934.10645,1970.39648 L1924.92676,1962.29102 Z M1979.02832,1962.29102 L1940.94238,1962.29102 L1940.94238,1976.45117 L1944.99512,1976.45117 L1944.99512,2024.83984 L1940.94238,2024.83984 L1940.94238,2039 L1963.25684,2039 L1963.25684,2024.83984 L1959.2041,2024.83984 L1959.2041,2007.75 L1963.40332,2007.75 L1975.46387,2039 L1990.64941,2039 L1990.64941,2024.83984 L1985.13184,2024.83984 L1978.39355,2007.55469 L1988.06152,1998.52148 L1988.06152,1970.34766 L1979.02832,1962.29102 Z M2032.88574,1962.29102 L2006.51855,1962.29102 L1997.48535,1970.34766 L1997.48535,2030.99219 L2006.51855,2039 L2032.88574,2039 L2042.0166,2030.99219 L2042.0166,1970.34766 L2032.88574,1962.29102 Z M2086.4502,1962.29102 L2048.85254,1962.29102 L2048.85254,1976.45117 L2052.90527,1976.45117 L2052.90527,2024.83984 L2048.85254,2024.83984 L2048.85254,2039 L2071.16699,2039 L2071.16699,2024.83984 L2067.06543,2024.83984 L2067.06543,2012.97461 L2086.4502,2012.97461 L2095.62988,2004.82031 L2095.62988,1970.39648 L2086.4502,1962.29102 Z M2137.86621,1962.29102 L2111.49902,1962.29102 L2102.46582,1970.34766 L2102.46582,2030.99219 L2111.49902,2039 L2137.86621,2039 L2146.99707,2030.99219 L2146.99707,1970.34766 L2137.86621,1962.29102 Z M2187.42676,1962.29102 L2162.96387,1962.29102 L2153.83301,1970.34766 L2153.83301,1999.69336 L2162.96387,2007.75 L2182.2998,2007.75 L2182.2998,2024.83984 L2167.99316,2024.83984 L2167.99316,2018.63867 L2153.83301,2018.63867 L2153.83301,2030.99219 L2162.96387,2039 L2187.42676,2039 L2196.45996,2030.99219 L2196.45996,2001.59766 L2187.42676,1993.54102 L2167.99316,1993.54102 L2167.99316,1976.45117 L2182.2998,1976.45117 L2182.2998,1982.65234 L2196.45996,1982.65234 L2196.45996,1970.29883 L2187.42676,1962.29102 Z M2339,2021 L2237,2021 L2237,2034 L2339,2034 L2339,2021 Z M1771,2021 L1669,2021 L1669,2034 L1771,2034 L1771,2021 Z M2027.80762,1976.45117 L2027.80762,2024.83984 L2011.64551,2024.83984 L2011.64551,1976.45117 L2027.80762,1976.45117 Z M2132.78809,1976.45117 L2132.78809,2024.83984 L2116.62598,2024.83984 L2116.62598,1976.45117 L2132.78809,1976.45117 Z M2339,2001 L2237,2001 L2237,2014 L2339,2014 L2339,2001 Z M1771,2001 L1669,2001 L1669,2014 L1771,2014 L1771,2001 Z M1829.76074,1984.80078 L1833.71582,2004.47852 L1825.85449,2004.47852 L1829.76074,1984.80078 Z M1919.94629,1976.45117 L1919.94629,1998.81445 L1905.54199,1998.81445 L1905.54199,1976.45117 L1919.94629,1976.45117 Z M2081.46973,1976.45117 L2081.46973,1998.81445 L2067.06543,1998.81445 L2067.06543,1976.45117 L2081.46973,1976.45117 Z M1771,1981 L1669,1981 L1669,1994 L1771,1994 L1771,1981 Z M2339,1981 L2237,1981 L2237,1994 L2339,1994 L2339,1981 Z M1973.90137,1976.45117 L1973.90137,1993.54102 L1959.2041,1993.54102 L1959.2041,1976.45117 L1973.90137,1976.45117 Z" id="Combined-Shape" fill="#FFFFFF"></path>
    </g>
</svg>