<?xml version="1.0" encoding="UTF-8"?>
<svg width="4000px" height="4000px" viewBox="0 0 4000 4000" version="1.1" xmlns="http://www.w3.org/2000/svg" xmlns:xlink="http://www.w3.org/1999/xlink">
    <!-- Generator: Sketch 63.1 (92452) - https://sketch.com -->
    <title>Combined Shape</title>
    <desc>Created with Sketch.</desc>
    <g id="Page-1" stroke="none" stroke-width="1" fill="none" fill-rule="evenodd" fill-opacity="0.8" opacity="0.9">
        <path d="M4000,0 L4000,4000 L0,4000 L0,0 L4000,0 Z M1903.66406,1962.29102 L1865.57812,1962.29102 L1865.57812,1976.45117 L1869.63086,1976.45117 L1869.63086,2024.83984 L1865.57812,2024.83984 L1865.57812,2039 L1887.89258,2039 L1887.89258,2024.83984 L1883.83984,2024.83984 L1883.83984,2007.75 L1888.03906,2007.75 L1900.09961,2039 L1915.28516,2039 L1915.28516,2024.83984 L1909.76758,2024.83984 L1903.0293,2007.55469 L1912.69727,1998.52148 L1912.69727,1970.34766 L1903.66406,1962.29102 Z M2062.11133,1962.29102 L2024.02539,1962.29102 L2024.02539,1976.45117 L2028.07812,1976.45117 L2028.07812,2024.83984 L2024.02539,2024.83984 L2024.02539,2039 L2046.33984,2039 L2046.33984,2024.83984 L2042.28711,2024.83984 L2042.28711,2007.75 L2046.48633,2007.75 L2058.54688,2039 L2073.73242,2039 L2073.73242,2024.83984 L2068.21484,2024.83984 L2061.47656,2007.55469 L2071.14453,1998.52148 L2071.14453,1970.34766 L2062.11133,1962.29102 Z M2008.00977,1962.29102 L1982.66797,1962.29102 L1973.48828,1970.34766 L1973.48828,2030.99219 L1982.52148,2039 L2008.00977,2039 L2017.18945,2030.99219 L2017.18945,1993.54102 L1993.36133,1993.54102 L1993.36133,2007.75 L2003.0293,2007.75 L2003.0293,2024.83984 L1987.69727,2024.83984 L1987.69727,1976.45117 L2003.0293,1976.45117 L2003.0293,1982.65234 L2017.18945,1982.65234 L2017.18945,1970.34766 L2008.00977,1962.29102 Z M2116.75,1962.29102 L2096.82812,1962.29102 L2084.32812,2024.83984 L2080.56836,2024.83984 L2080.56836,2039 L2102.88281,2039 L2102.88281,2024.83984 L2098.78125,2024.83984 L2100.00195,2018.63867 L2113.57617,2018.63867 L2114.79688,2024.83984 L2110.79297,2024.83984 L2110.79297,2039 L2133.10742,2039 L2133.10742,2024.83984 L2129.25,2024.83984 L2116.75,1962.29102 Z M1710.8418,1962.29102 L1690.91992,1962.29102 L1678.41992,2024.83984 L1674.66016,2024.83984 L1674.66016,2039 L1696.97461,2039 L1696.97461,2024.83984 L1692.87305,2024.83984 L1694.09375,2018.63867 L1707.66797,2018.63867 L1708.88867,2024.83984 L1704.88477,2024.83984 L1704.88477,2039 L1727.19922,2039 L1727.19922,2024.83984 L1723.3418,2024.83984 L1710.8418,1962.29102 Z M1957.52148,1962.29102 L1931.1543,1962.29102 L1922.12109,1970.34766 L1922.12109,2030.99219 L1931.1543,2039 L1957.52148,2039 L1966.65234,2030.99219 L1966.65234,1970.34766 L1957.52148,1962.29102 Z M2158.35156,1962.29102 L2140.08984,1962.29102 L2140.08984,1976.45117 L2144.19141,1976.45117 L2144.19141,2024.83984 L2139.94336,2024.83984 L2139.94336,2039 L2162.25781,2039 L2162.25781,2024.83984 L2158.35156,2024.83984 L2158.35156,1995.78711 L2170.65625,2022.1543 L2183.00977,1995.78711 L2183.00977,2024.83984 L2179.10352,2024.83984 L2179.10352,2039 L2201.41797,2039 L2201.41797,2024.83984 L2197.21875,2024.83984 L2197.21875,1976.45117 L2201.27148,1976.45117 L2201.27148,1962.29102 L2183.00977,1962.29102 L2170.65625,1988.6582 L2158.35156,1962.29102 Z M2321.33984,1962.29102 L2276.56445,1962.29102 L2276.56445,1976.45117 L2280.61719,1976.45117 L2280.61719,2024.83984 L2276.56445,2024.83984 L2276.56445,2039 L2321.33984,2039 L2321.33984,2018.63867 L2307.17969,2018.63867 L2307.17969,2024.83984 L2294.77734,2024.83984 L2294.77734,2007.75 L2314.16211,2007.75 L2314.16211,1993.54102 L2294.77734,1993.54102 L2294.77734,1976.45117 L2307.17969,1976.45117 L2307.17969,1982.65234 L2321.33984,1982.65234 L2321.33984,1962.29102 Z M2226.66211,1962.29102 L2208.40039,1962.29102 L2208.40039,1976.45117 L2212.50195,1976.45117 L2212.50195,2024.83984 L2208.25391,2024.83984 L2208.25391,2039 L2230.56836,2039 L2230.56836,2024.83984 L2226.66211,2024.83984 L2226.66211,1995.78711 L2238.9668,2022.1543 L2251.32031,1995.78711 L2251.32031,2024.83984 L2247.41406,2024.83984 L2247.41406,2039 L2269.72852,2039 L2269.72852,2024.83984 L2265.5293,2024.83984 L2265.5293,1976.45117 L2269.58203,1976.45117 L2269.58203,1962.29102 L2251.32031,1962.29102 L2238.9668,1988.6582 L2226.66211,1962.29102 Z M1849.5625,1962.29102 L1811.96484,1962.29102 L1811.96484,1976.45117 L1816.01758,1976.45117 L1816.01758,2024.83984 L1811.96484,2024.83984 L1811.96484,2039 L1834.2793,2039 L1834.2793,2024.83984 L1830.17773,2024.83984 L1830.17773,2012.97461 L1849.5625,2012.97461 L1858.74219,2004.82031 L1858.74219,1970.39648 L1849.5625,1962.29102 Z M1750.68555,1962.29102 L1728.41992,1962.29102 L1728.41992,1976.45117 L1732.47266,1976.45117 L1732.47266,2030.99219 L1741.55469,2039 L1767.38477,2039 L1776.66211,2030.94336 L1776.66211,1976.45117 L1780.71484,1976.45117 L1780.71484,1962.29102 L1758.40039,1962.29102 L1758.40039,1976.45117 L1762.50195,1976.45117 L1762.50195,2024.83984 L1746.63281,2024.83984 L1746.63281,1976.45117 L1750.68555,1976.45117 L1750.68555,1962.29102 Z M2444,2020 L2342,2020 L2342,2033 L2444,2033 L2444,2020 Z M1659,2020 L1557,2020 L1557,2033 L1659,2033 L1659,2020 Z M1952.44336,1976.45117 L1952.44336,2024.83984 L1936.28125,2024.83984 L1936.28125,1976.45117 L1952.44336,1976.45117 Z M1659,2000 L1557,2000 L1557,2013 L1659,2013 L1659,2000 Z M2444,2000 L2342,2000 L2342,2013 L2444,2013 L2444,2000 Z M2106.78906,1984.80078 L2110.74414,2004.47852 L2102.88281,2004.47852 L2106.78906,1984.80078 Z M1700.88086,1984.80078 L1704.83594,2004.47852 L1696.97461,2004.47852 L1700.88086,1984.80078 Z M1844.58203,1976.45117 L1844.58203,1998.81445 L1830.17773,1998.81445 L1830.17773,1976.45117 L1844.58203,1976.45117 Z M2056.98438,1976.45117 L2056.98438,1993.54102 L2042.28711,1993.54102 L2042.28711,1976.45117 L2056.98438,1976.45117 Z M1898.53711,1976.45117 L1898.53711,1993.54102 L1883.83984,1993.54102 L1883.83984,1976.45117 L1898.53711,1976.45117 Z M2444,1980 L2342,1980 L2342,1993 L2444,1993 L2444,1980 Z M1659,1980 L1557,1980 L1557,1993 L1659,1993 L1659,1980 Z" id="Combined-Shape" fill="#1E3B44"></path>
    </g>
</svg>