<?xml version="1.0" encoding="UTF-8"?>
<svg width="4000px" height="4000px" viewBox="0 0 4000 4000" version="1.1" xmlns="http://www.w3.org/2000/svg" xmlns:xlink="http://www.w3.org/1999/xlink">
    <!-- Generator: Sketch 63.1 (92452) - https://sketch.com -->
    <title>Combined Shape</title>
    <desc>Created with Sketch.</desc>
    <g id="Page-1" stroke="none" stroke-width="1" fill="none" fill-rule="evenodd" fill-opacity="0.9">
        <path d="M4000,0 L4000,4000 L0,4000 L0,0 L4000,0 Z M1669.925,1961.5 L1654.895,1961.5 C1648.775,1961.5 1648.775,1961.5 1644.32,1965.91 C1640.0135,1970.173 1640.0135,1970.173 1639.86995,1976.118 L1639.865,1976.53 L1639.865,2029 L1654.895,2029 L1654.895,1999.03 L1669.925,1999.03 L1669.925,2029 L1684.865,2029 L1684.865,1976.53 C1684.865,1970.41 1684.865,1970.41 1680.455,1965.955 C1676.192,1961.6485 1676.192,1961.6485 1670.3311,1961.50495 L1669.925,1961.5 Z M1714.925,1961.5 L1699.895,1961.5 L1699.895,2013.97 C1699.895,2020.18 1699.895,2020.18 1704.35,2024.59 C1708.6565,2028.853 1708.6565,2028.853 1714.51885,2028.9951 L1714.925,2029 L1729.955,2029 C1736.075,2029 1736.075,2029 1740.485,2024.545 C1744.748,2020.2385 1744.748,2020.2385 1744.8901,2014.37615 L1744.895,2013.97 L1744.895,1961.5 L1729.955,1961.5 L1729.955,2013.97 C1729.955,2017.03 1729.955,2017.03 1727.75,2019.28 C1725.545,2021.53 1725.545,2021.53 1722.395,2021.53 C1719.335,2021.53 1719.335,2021.53 1717.13,2019.28 C1715.04105,2017.14842 1715.04105,2017.14842 1714.93111,2014.28986 L1714.925,2013.97 L1714.925,1961.5 Z M1812.485,1961.5 L1782.425,1961.5 L1782.425,2029 L1797.455,2029 L1797.455,1999.03 L1812.485,1999.03 C1818.605,1999.03 1818.605,1999.03 1823.015,1994.575 C1827.278,1990.2685 1827.278,1990.2685 1827.4201,1984.40615 L1827.425,1984 L1827.425,1976.53 C1827.425,1970.41 1827.425,1970.41 1823.015,1965.955 C1818.752,1961.6485 1818.752,1961.6485 1812.8911,1961.50495 L1812.485,1961.5 Z M1872.515,1961.5 L1842.455,1961.5 L1842.455,2029 L1857.485,2029 L1857.485,1999.03 L1864.955,1999.03 C1868.105,1999.03 1868.105,1999.03 1870.31,2001.235 C1872.39895,2003.32395 1872.39895,2003.32395 1872.50889,2006.18026 L1872.515,2006.5 L1872.515,2029 L1887.455,2029 L1887.455,2002.45 C1887.455,1999.3 1887.455,1999.3 1885.25,1997.095 C1883.16105,1995.00605 1883.16105,1995.00605 1880.30474,1994.89611 L1879.985,1994.89 L1872.515,1994.89 C1880.615,1994.89 1880.615,1994.89 1884.035,1990.255 C1887.3182,1985.8054 1887.3182,1985.8054 1887.44953,1980.98255 L1887.455,1980.58 L1887.455,1976.53 C1887.455,1970.41 1887.455,1970.41 1883.045,1965.955 C1878.782,1961.6485 1878.782,1961.6485 1872.9211,1961.50495 L1872.515,1961.5 Z M1932.545,1961.5 L1917.515,1961.5 C1911.395,1961.5 1911.395,1961.5 1906.94,1965.91 C1902.6335,1970.173 1902.6335,1970.173 1902.48995,1976.118 L1902.485,1976.53 L1902.485,2013.97 C1902.485,2020.18 1902.485,2020.18 1906.94,2024.59 C1911.2465,2028.853 1911.2465,2028.853 1917.10885,2028.9951 L1917.515,2029 L1932.545,2029 C1938.665,2029 1938.665,2029 1943.075,2024.545 C1947.338,2020.2385 1947.338,2020.2385 1947.4801,2014.37615 L1947.485,2013.97 L1947.485,1976.53 C1947.485,1970.41 1947.485,1970.41 1943.075,1965.955 C1938.812,1961.6485 1938.812,1961.6485 1932.9511,1961.50495 L1932.545,1961.5 Z M1992.575,1961.5 L1977.545,1961.5 C1971.245,1961.5 1971.245,1961.5 1966.88,1965.955 C1962.66552,1970.25638 1962.66552,1970.25638 1962.52019,1976.10991 L1962.515,1976.53 L1962.515,2013.97 C1962.515,2020.18 1962.515,2020.18 1966.97,2024.59 C1971.2765,2028.853 1971.2765,2028.853 1977.13885,2028.9951 L1977.545,2029 L1992.575,2029 C1997.975,2029 1997.975,2029 2002.745,2025.265 C2007.37471,2021.63985 2007.37471,2021.63985 2007.51087,2014.4114 L2007.515,2013.97 L2007.515,1991.47 L1985.015,1991.47 L1985.015,1999.03 L1992.575,1999.03 L1992.575,2013.97 C1992.215,2021.17 1992.215,2021.17 1985.015,2021.53 C1981.955,2021.53 1981.955,2021.53 1979.75,2019.325 C1977.66105,2017.23605 1977.66105,2017.23605 1977.55111,2014.29896 L1977.545,2013.97 L1977.545,1976.53 C1977.545,1973.38 1977.545,1973.38 1979.75,1971.175 C1981.83895,1969.08605 1981.83895,1969.08605 1984.69526,1968.97611 L1985.015,1968.97 L1992.575,1968.97 C1999.00521,1968.97 1999.00521,1968.97 2000.00414,1976.21172 L2000.045,1976.53 L2007.515,1976.53 C2006.7158,1961.7004 2006.7158,1961.7004 1992.94943,1961.50267 L1992.575,1961.5 Z M2052.605,1961.5 L2022.545,1961.5 L2022.545,2029 L2037.575,2029 L2037.575,1999.03 L2045.045,1999.03 C2048.195,1999.03 2048.195,1999.03 2050.4,2001.235 C2052.48895,2003.32395 2052.48895,2003.32395 2052.59889,2006.18026 L2052.605,2006.5 L2052.605,2029 L2067.545,2029 L2067.545,2002.45 C2067.545,1999.3 2067.545,1999.3 2065.34,1997.095 C2063.25105,1995.00605 2063.25105,1995.00605 2060.39474,1994.89611 L2060.075,1994.89 L2052.605,1994.89 C2060.705,1994.89 2060.705,1994.89 2064.125,1990.255 C2067.4082,1985.8054 2067.4082,1985.8054 2067.53953,1980.98255 L2067.545,1980.58 L2067.545,1976.53 C2067.545,1970.41 2067.545,1970.41 2063.135,1965.955 C2058.872,1961.6485 2058.872,1961.6485 2053.0111,1961.50495 L2052.605,1961.5 Z M2112.635,1961.5 L2097.605,1961.5 C2091.485,1961.5 2091.485,1961.5 2087.03,1965.91 C2082.7235,1970.173 2082.7235,1970.173 2082.57995,1976.118 L2082.575,1976.53 L2082.575,2029 L2097.605,2029 L2097.605,1999.03 L2112.635,1999.03 L2112.635,2029 L2127.575,2029 L2127.575,1976.53 C2127.575,1970.41 2127.575,1970.41 2123.165,1965.955 C2118.902,1961.6485 2118.902,1961.6485 2113.0411,1961.50495 L2112.635,1961.5 Z M2146.115,1961.5 L2142.605,1961.5 L2142.605,2029 L2150.165,2029 L2150.165,1987.78 L2176.355,2014.06 L2202.635,1987.78 L2202.635,2029 L2217.665,2029 L2217.665,1961.5 L2210.105,1961.5 L2178.155,1993.45 L2146.115,1961.5 Z M2236.115,1961.5 L2232.605,1961.5 L2232.605,2029 L2240.165,2029 L2240.165,1987.78 L2266.355,2014.06 L2292.635,1987.78 L2292.635,2029 L2307.665,2029 L2307.665,1961.5 L2300.105,1961.5 L2268.155,1993.45 L2236.115,1961.5 Z M2360.135,1961.5 L2322.605,1961.5 L2322.605,2029 L2360.135,2029 L2360.135,2021.53 L2337.635,2021.53 L2337.635,1999.03 L2352.665,1999.03 L2352.665,1991.47 L2337.635,1991.47 L2337.635,1968.97 L2360.135,1968.97 L2360.135,1961.5 Z M1924.985,1968.97 C1928.135,1968.97 1928.135,1968.97 1930.34,1971.175 C1932.42895,1973.26395 1932.42895,1973.26395 1932.53889,1976.20104 L1932.545,1976.53 L1932.545,2013.97 C1932.545,2017.03 1932.545,2017.03 1930.34,2019.28 C1928.135,2021.53 1928.135,2021.53 1924.985,2021.53 C1921.925,2021.53 1921.925,2021.53 1919.72,2019.28 C1917.63105,2017.14842 1917.63105,2017.14842 1917.52111,2014.28986 L1917.515,2013.97 L1917.515,1976.53 C1917.515,1973.38 1917.515,1973.38 1919.72,1971.175 C1921.925,1968.97 1921.925,1968.97 1924.985,1968.97 Z M1662.365,1968.97 C1665.515,1968.97 1665.515,1968.97 1667.72,1971.175 C1669.80895,1973.26395 1669.80895,1973.26395 1669.91889,1976.20104 L1669.925,1976.53 L1669.925,1991.47 L1654.895,1991.47 L1654.895,1976.53 C1654.895,1973.38 1654.895,1973.38 1657.1,1971.175 C1659.305,1968.97 1659.305,1968.97 1662.365,1968.97 Z M1804.925,1968.97 C1808.075,1968.97 1808.075,1968.97 1810.28,1971.175 C1812.36895,1973.26395 1812.36895,1973.26395 1812.47889,1976.20104 L1812.485,1976.53 L1812.485,1984 C1812.485,1987.06 1812.485,1987.06 1810.28,1989.265 C1808.075,1991.47 1808.075,1991.47 1804.925,1991.47 L1797.455,1991.47 L1797.455,1968.97 L1804.925,1968.97 Z M1864.955,1968.97 C1868.105,1968.97 1868.105,1968.97 1870.31,1971.175 C1872.39895,1973.26395 1872.39895,1973.26395 1872.50889,1976.20104 L1872.515,1976.53 L1872.515,1984 C1872.515,1987.06 1872.515,1987.06 1870.31,1989.265 C1868.105,1991.47 1868.105,1991.47 1864.955,1991.47 L1857.485,1991.47 L1857.485,1968.97 L1864.955,1968.97 Z M2045.045,1968.97 C2048.195,1968.97 2048.195,1968.97 2050.4,1971.175 C2052.48895,1973.26395 2052.48895,1973.26395 2052.59889,1976.20104 L2052.605,1976.53 L2052.605,1984 C2052.605,1987.06 2052.605,1987.06 2050.4,1989.265 C2048.195,1991.47 2048.195,1991.47 2045.045,1991.47 L2037.575,1991.47 L2037.575,1968.97 L2045.045,1968.97 Z M2105.075,1968.97 C2108.225,1968.97 2108.225,1968.97 2110.43,1971.175 C2112.51895,1973.26395 2112.51895,1973.26395 2112.62889,1976.20104 L2112.635,1976.53 L2112.635,1991.47 L2097.605,1991.47 L2097.605,1976.53 C2097.605,1973.38 2097.605,1973.38 2099.81,1971.175 C2102.015,1968.97 2102.015,1968.97 2105.075,1968.97 Z" id="Combined-Shape" fill="#2F2F2F"></path>
    </g>
</svg>