<?xml version="1.0" encoding="UTF-8"?>
<svg width="4000px" height="4000px" viewBox="0 0 4000 4000" version="1.1" xmlns="http://www.w3.org/2000/svg" xmlns:xlink="http://www.w3.org/1999/xlink">
    <!-- Generator: Sketch 63.1 (92452) - https://sketch.com -->
    <title>Combined Shape</title>
    <desc>Created with Sketch.</desc>
    <g id="Page-1" stroke="none" stroke-width="1" fill="none" fill-rule="evenodd" fill-opacity="0.9">
        <path d="M4000,0 L4000,4000 L0,4000 L0,0 L4000,0 Z M1895.015,2014.5 L1864.955,2014.5 L1864.955,2082 L1895.015,2082 C1901.135,2082 1901.135,2082 1905.545,2077.545 C1909.808,2073.2385 1909.808,2073.2385 1909.9501,2067.37615 L1909.955,2066.97 L1909.955,2029.53 C1909.955,2023.41 1909.955,2023.41 1905.545,2018.955 C1901.282,2014.6485 1901.282,2014.6485 1895.4211,2014.50495 L1895.015,2014.5 Z M1955.045,2014.5 L1940.015,2014.5 C1933.895,2014.5 1933.895,2014.5 1929.44,2018.91 C1925.1335,2023.173 1925.1335,2023.173 1924.98995,2029.118 L1924.985,2029.53 L1924.985,2082 L1940.015,2082 L1940.015,2052.03 L1955.045,2052.03 L1955.045,2082 L1969.985,2082 L1969.985,2029.53 C1969.985,2023.41 1969.985,2023.41 1965.575,2018.955 C1961.312,2014.6485 1961.312,2014.6485 1955.4511,2014.50495 L1955.045,2014.5 Z M2022.545,2014.5 L1977.545,2014.5 L1977.545,2021.97 L1992.575,2021.97 L1992.575,2082 L2007.515,2082 L2007.515,2021.97 L2022.545,2021.97 L2022.545,2014.5 Z M2067.545,2014.5 L2030.015,2014.5 L2030.015,2082 L2067.545,2082 L2067.545,2074.53 L2045.045,2074.53 L2045.045,2052.03 L2060.075,2052.03 L2060.075,2044.47 L2045.045,2044.47 L2045.045,2021.97 L2067.545,2021.97 L2067.545,2014.5 Z M2127.485,2066.97 L2112.545,2066.97 L2112.545,2082 L2127.485,2082 L2127.485,2066.97 Z M1887.455,2021.97 C1890.605,2021.97 1890.605,2021.97 1892.81,2024.175 C1894.89895,2026.26395 1894.89895,2026.26395 1895.00889,2029.20104 L1895.015,2029.53 L1895.015,2066.97 C1895.015,2070.03 1895.015,2070.03 1892.81,2072.28 C1890.605,2074.53 1890.605,2074.53 1887.455,2074.53 L1879.985,2074.53 L1879.985,2021.97 L1887.455,2021.97 Z M2127.485,2014.5 L2112.545,2014.5 L2112.545,2059.5 L2127.485,2059.5 L2127.485,2014.5 Z M1947.485,2021.97 C1950.635,2021.97 1950.635,2021.97 1952.84,2024.175 C1954.92895,2026.26395 1954.92895,2026.26395 1955.03889,2029.20104 L1955.045,2029.53 L1955.045,2044.47 L1940.015,2044.47 L1940.015,2029.53 C1940.015,2026.38 1940.015,2026.38 1942.22,2024.175 C1944.425,2021.97 1944.425,2021.97 1947.485,2021.97 Z M1827.47,1914.5 L1820,1914.5 C1813.79,1914.5 1813.79,1914.5 1809.38,1918.955 C1805.117,1923.2615 1805.117,1923.2615 1804.9749,1929.12385 L1804.97,1929.53 L1804.97,1933.22 C1804.97,1938.78138 1804.97,1938.78138 1809.08111,1943.50376 L1809.38,1943.84 L1825.31,1961.66 C1827.47,1964.09 1827.47,1964.09 1827.47,1966.97 C1827.47,1970.66 1827.47,1970.66 1825.715,1972.595 C1823.96,1974.53 1823.96,1974.53 1820,1974.53 C1817.21,1974.53 1817.21,1974.53 1814.87,1972.91 C1812.64143,1971.36714 1812.64143,1971.36714 1812.53531,1968.51816 L1812.53,1968.23 L1812.53,1966.97 L1804.97,1966.97 C1804.97,1974.53 1804.97,1974.53 1808.75,1978.265 C1812.40806,1981.87952 1812.40806,1981.87952 1819.5219,1981.99611 L1820,1982 L1827.47,1982 C1833.68,1982 1833.68,1982 1838.09,1977.545 C1842.353,1973.2385 1842.353,1973.2385 1842.4951,1967.37615 L1842.5,1966.97 L1842.5,1963.28 C1842.5,1957.80552 1842.5,1957.80552 1838.38889,1953.00224 L1838.09,1952.66 L1822.16,1934.84 C1820,1932.32 1820,1932.32 1820,1929.53 C1820,1925.75 1820,1925.75 1821.98,1923.86 C1823.96,1921.97 1823.96,1921.97 1827.92,1921.97 C1833.90696,1921.97 1833.90696,1921.97 1834.98453,1929.20488 L1835.03,1929.53 L1842.5,1929.53 C1841.612,1914.7004 1841.612,1914.7004 1827.84445,1914.50267 L1827.47,1914.5 Z M1887.5,1914.5 L1872.47,1914.5 C1866.35,1914.5 1866.35,1914.5 1861.895,1918.91 C1857.5885,1923.173 1857.5885,1923.173 1857.44495,1929.118 L1857.44,1929.53 L1857.44,1982 L1872.47,1982 L1872.47,1952.03 L1887.5,1952.03 L1887.5,1982 L1902.44,1982 L1902.44,1929.53 C1902.44,1923.41 1902.44,1923.41 1898.03,1918.955 C1893.767,1914.6485 1893.767,1914.6485 1887.9061,1914.50495 L1887.5,1914.5 Z M1932.5,1914.5 L1917.47,1914.5 L1917.47,1982 L1936.91,1982 C1947.44,1982 1947.44,1982 1954.955,1974.44 C1962.29523,1967.05581 1962.29523,1967.05581 1962.46594,1956.83816 L1962.47,1956.35 L1962.47,1914.5 L1947.53,1914.5 L1947.53,1966.97 C1947.53,1970.03 1947.53,1970.03 1945.325,1972.28 C1943.23605,1974.41158 1943.23605,1974.41158 1940.29896,1974.52377 L1939.97,1974.53 L1932.5,1974.53 L1932.5,1914.5 Z M2015.03,1914.5 L1977.5,1914.5 L1977.5,1982 L2015.03,1982 L2015.03,1974.53 L1992.53,1974.53 L1992.53,1952.03 L2007.56,1952.03 L2007.56,1944.47 L1992.53,1944.47 L1992.53,1921.97 L2015.03,1921.97 L2015.03,1914.5 Z M2090,1914.5 L2045,1914.5 L2045,1921.97 L2060.03,1921.97 L2060.03,1982 L2074.97,1982 L2074.97,1921.97 L2090,1921.97 L2090,1914.5 Z M2112.5,1914.5 L2097.47,1914.5 L2097.47,1982 L2112.5,1982 L2112.5,1952.03 L2127.53,1952.03 L2127.53,1982 L2142.47,1982 L2142.47,1914.5 L2127.53,1914.5 L2127.53,1944.47 L2112.5,1944.47 L2112.5,1914.5 Z M2195.03,1914.5 L2157.5,1914.5 L2157.5,1982 L2195.03,1982 L2195.03,1974.53 L2172.53,1974.53 L2172.53,1952.03 L2187.56,1952.03 L2187.56,1944.47 L2172.53,1944.47 L2172.53,1921.97 L2195.03,1921.97 L2195.03,1914.5 Z M1879.94,1921.97 C1883.09,1921.97 1883.09,1921.97 1885.295,1924.175 C1887.38395,1926.26395 1887.38395,1926.26395 1887.49389,1929.20104 L1887.5,1929.53 L1887.5,1944.47 L1872.47,1944.47 L1872.47,1929.53 C1872.47,1926.38 1872.47,1926.38 1874.675,1924.175 C1876.88,1921.97 1876.88,1921.97 1879.94,1921.97 Z" id="Combined-Shape" fill="#2F2F2F"></path>
    </g>
</svg>