<?xml version="1.0" encoding="UTF-8"?>
<svg width="4000px" height="4000px" viewBox="0 0 4000 4000" version="1.1" xmlns="http://www.w3.org/2000/svg" xmlns:xlink="http://www.w3.org/1999/xlink">
    <!-- Generator: Sketch 63.1 (92452) - https://sketch.com -->
    <title>Group</title>
    <desc>Created with Sketch.</desc>
    <g id="Page-1" stroke="none" stroke-width="1" fill="none" fill-rule="evenodd">
        <g id="Group">
            <rect id="Rectangle" fill="#1E1E1E" x="0" y="0" width="4000" height="4000"></rect>
            <g id="Group-5" transform="translate(1758.000000, 1827.000000)">
                <g id="Group-3" transform="translate(119.000000, 150.000000)" fill="#D8D8D8">
                    <polygon id="Star" points="10 15 4.12214748 18.0901699 5.24471742 11.545085 0.489434837 6.90983006 7.06107374 5.95491503 10 0 12.9389263 5.95491503 19.5105652 6.90983006 14.7552826 11.545085 15.8778525 18.0901699"></polygon>
                    <polygon id="Star" points="270 15 264.122147 18.0901699 265.244717 11.545085 260.489435 6.90983006 267.061074 5.95491503 270 0 272.938926 5.95491503 279.510565 6.90983006 274.755283 11.545085 275.877853 18.0901699"></polygon>
                    <text id="1Ère-ed.---5-au-8-ao" font-family="SuperstarM54, Superstar M54" font-size="16" font-weight="700">
                        <tspan x="47.5117188" y="20">1</tspan>
                        <tspan x="52.1679688" y="20" font-family="LucidaGrande-Bold, Lucida Grande" font-weight="bold">È</tspan>
                        <tspan x="61.7773438" y="20">re ed. - 5 au 8 ao</tspan>
                        <tspan x="175.636719" y="20" font-family="LucidaGrande-Bold, Lucida Grande" font-weight="bold">Û</tspan>
                        <tspan x="187.417969" y="20">t 2020</tspan>
                    </text>
                </g>
                <g id="Group-4" transform="translate(0.000000, 22.000000)" fill="#D8D8D8">
                    <rect id="Rectangle" x="0" y="38" width="80" height="13"></rect>
                    <rect id="Rectangle" x="399" y="38" width="80" height="13"></rect>
                    <rect id="Rectangle" x="399" y="58" width="80" height="13"></rect>
                    <rect id="Rectangle" x="399" y="78" width="80" height="13"></rect>
                    <rect id="Rectangle" x="0" y="58" width="80" height="13"></rect>
                    <rect id="Rectangle" x="0" y="78" width="80" height="13"></rect>
                    <text id="Festival" font-family="Riverswell" font-size="120" font-style="italic" font-weight="normal">
                        <tspan x="103.474609" y="98">Festival</tspan>
                    </text>
                </g>
                <g id="Group-2" transform="translate(19.000000, 0.000000)">
                    <path d="M0,60 C69.7001728,20 143.200173,0 220.5,0 C297.799827,0 377.63316,20 460,60" id="Path"></path>
                    <text id="Films-de-Plein-Air" font-family="SuperstarM54, Superstar M54" font-size="21" font-weight="700" fill="#D8D8D8">
                        <tspan x="147.133789" y="30">Films de Plein Air</tspan>
                    </text>
                </g>
            </g>
        </g>
    </g>
</svg>