<?xml version="1.0" encoding="UTF-8"?>
<svg width="4000px" height="4000px" viewBox="0 0 4000 4000" version="1.1" xmlns="http://www.w3.org/2000/svg" xmlns:xlink="http://www.w3.org/1999/xlink">
    <!-- Generator: Sketch 63.1 (92452) - https://sketch.com -->
    <title>titrehome_petites_resolutions</title>
    <desc>Created with Sketch.</desc>
    <defs>
        <path d="M22.7988281,74.1977539 C24.2929688,74.2416992 25.6186523,73.8388672 26.7758789,72.9892578 C27.9331055,72.1396484 28.5117188,70.5869141 28.5117188,68.3310547 C28.5117188,63.6142578 28.5410156,58.6630859 28.5996094,53.4775391 L28.5996094,53.4775391 L28.5996094,43.4580078 C30.8261719,43.3994141 32.4375,43.3701172 33.4335937,43.3701172 C35.6601562,43.3701172 37.2055664,42.8354492 38.0698242,41.7661133 C38.934082,40.6967773 39.3369141,39.4736328 39.2783203,38.0966797 C39.2197266,36.7197266 38.9047852,35.496582 38.3334961,34.4272461 C37.762207,33.3579102 37.125,32.75 36.421875,32.6035156 C35.71875,33.2773438 34.7592773,33.6801758 33.543457,33.8120117 C32.3276367,33.9438477 31.1191406,33.9804688 29.9179688,33.921875 L29.9179688,33.921875 L28.5996094,33.921875 C28.5996094,31.1679688 28.5849609,28.4873047 28.5556641,25.8798828 L28.5556641,25.8798828 L28.5563507,25.6951752 C28.5595551,25.3459015 28.5739746,24.8508301 28.5996094,24.2099609 C28.6289063,23.4775391 28.7167969,22.7158203 28.8632813,21.9248047 C30.328125,21.9248047 31.565918,21.9174805 32.5766602,21.902832 C33.5874023,21.8881836 34.5761719,21.8808594 35.5429688,21.8808594 C36.5976562,21.8515625 37.9160156,21.8369141 39.4980469,21.8369141 L39.4980469,21.8369141 L46.0458984,21.8369141 C48.2724609,21.8369141 49.8178711,21.3022461 50.6821289,20.2329102 C51.5463867,19.1635742 51.9492188,17.9404297 51.890625,16.5634766 C51.8320312,15.1865234 51.5170898,13.9633789 50.9458008,12.894043 C50.3745117,11.824707 49.7373047,11.2167969 49.0341797,11.0703125 C48.3310547,11.7148438 47.2983398,12.1030273 45.9360352,12.2348633 C44.5737305,12.3666992 43.2919922,12.4179688 42.0908203,12.3886719 L42.0908203,12.3886719 L34.4223633,12.3886719 C32.8842773,12.3886719 31.5878906,12.4033203 30.5332031,12.4326172 L30.5332031,12.4326172 L25.7431641,12.4326172 C15.6064453,12.7841797 8.86083984,14.9667969 5.50634766,18.9804688 C2.15185547,22.9941406 1.265625,26.8173828 2.84765625,30.4501953 C4.4296875,34.0830078 7.56445312,35.5039062 12.2519531,34.7128906 C10.9335938,32.0761719 10.9116211,29.6811523 12.1860352,27.527832 C13.4604492,25.3745117 15.3720703,23.609375 17.9208984,22.2324219 C18.0087891,22.203125 18.1113281,22.1738281 18.2285156,22.1445312 L18.2285156,22.1445312 L18.1845703,34.0097656 C16.1923828,34.1855469 14.8227539,34.8081055 14.0756836,35.8774414 C13.3286133,36.9467773 12.9990234,38.1479492 13.0869141,39.480957 C13.1748047,40.8139648 13.4970703,41.9931641 14.0537109,43.0185547 C14.6103516,44.0439453 15.2255859,44.6152344 15.8994141,44.7324219 C16.4560547,44.234375 17.2177734,43.8974609 18.1845703,43.7216797 L18.1845703,43.7216797 L18.140625,64.4199219 C18.1992188,65.5917969 18.1625977,66.8588867 18.0307617,68.2211914 C17.8989258,69.5834961 17.4960937,70.6162109 16.8222656,71.3193359 C16.96875,72.0224609 17.6279297,72.6669922 18.7998047,73.2529297 C19.9716797,73.8388672 21.3046875,74.1538086 22.7988281,74.1977539 Z M54.7470703,74.3955078 C59.1708984,74.3955078 63.2138672,72.6523438 66.8759766,69.1660156 C67.8134766,68.2578125 68.6630859,67.2763672 69.4248047,66.2216797 C70.1865234,65.1669922 70.8383789,63.7460938 71.3803711,61.9589844 C71.9223633,60.171875 72.1933594,58.4433594 72.1933594,56.7734375 C72.1933594,55.0742188 71.9003906,53.7265625 71.3144531,52.7304688 L71.3144531,52.7304688 L70.9628906,52.1591797 C70.9042969,52.1591797 70.8237305,52.3203125 70.7211914,52.6425781 C70.6186523,52.9648438 70.4501953,53.4335938 70.2158203,54.0488281 C69.7177734,55.3671875 68.8168945,56.8833008 67.5131836,58.597168 C66.2094727,60.3110352 64.6494141,61.8564453 62.8330078,63.2333984 C60.4306641,64.9033203 58.0722656,65.7382812 55.7578125,65.7382812 C51.1582031,65.7382812 48.3457031,63.0283203 47.3203125,57.6083984 C48.1699219,57.7548828 49.2246094,57.828125 50.484375,57.828125 C51.3046875,57.828125 52.2128906,57.7988281 53.2089844,57.7402344 C55.6992188,57.59375 58.1015625,56.8466797 60.4160156,55.4990234 C63.4628906,53.5068359 65.5649414,51.3754883 66.722168,49.1049805 C67.8793945,46.8344727 68.4580078,44.8349609 68.4580078,43.1064453 C68.4580078,41.9638672 68.2675781,40.8066406 67.8867188,39.6347656 C65.9824219,34.8886719 62.5400391,32.515625 57.5595703,32.515625 C56.8564453,32.515625 56.1240234,32.5595703 55.3623047,32.6474609 C49.5908203,33.3798828 45.1816406,35.8774414 42.1347656,40.1401367 C39.0878906,44.402832 37.5644531,48.7167969 37.5644531,53.0820312 C37.5644531,57.5351562 38.0625,61.0214844 39.0585938,63.5410156 C39.9667969,65.9140625 41.0654297,67.8183594 42.3544922,69.2539062 C44.2587891,71.3925781 46.7050781,72.8720703 49.6933594,73.6923828 C51.421875,74.1611328 53.1064453,74.3955078 54.7470703,74.3955078 Z M50.5283203,51.6757812 C49.3271484,51.6757812 48.2578125,51.5878906 47.3203125,51.4121094 C48.0820312,47.6328125 49.378418,44.9155273 51.2094727,43.2602539 C53.0405273,41.6049805 54.6005859,40.7773438 55.8896484,40.7773438 C56.4169922,40.7773438 56.9150391,40.8798828 57.3837891,41.0849609 C58.5263672,41.5244141 59.0976562,42.4472656 59.0976562,43.8535156 C59.0976562,45.875 58.3359375,47.6767578 56.8125,49.2587891 C55.9335938,50.1962891 54.9814453,50.8408203 53.9560547,51.1923828 C52.7841797,51.5146484 51.6416016,51.6757812 50.5283203,51.6757812 Z M73.3139648,72.6157227 C76.0239258,74.2416992 79.78125,74.5273438 84.5859375,73.4726562 C88.1894531,72.2714844 90.4672852,70.1767578 91.4194336,67.1884766 C92.371582,64.2001953 92.1005859,61.2558594 90.6064453,58.3554688 C88.9658203,56.1289062 86.6953125,53.8730469 83.7949219,51.5878906 C82.6816406,50.8261719 81.6269531,50.0351562 80.6308594,49.2148438 C77.8183594,47.0175781 76.5073242,45.1572266 76.6977539,43.6337891 C76.8881836,42.1103516 77.7451172,41.1289062 79.2685547,40.6894531 C80.7919922,40.25 82.1469727,40.5649414 83.3334961,41.6342773 C84.5200195,42.7036133 84.6884766,44.7470703 83.8388672,47.7646484 C88.4091797,47.8232422 91.1484375,46.6367188 92.0566406,44.2050781 C92.9648438,41.7734375 92.4155273,39.3051758 90.4086914,36.800293 C88.4018555,34.2954102 85.1279297,32.9111328 80.5869141,32.6474609 C73.2041016,33.2333984 69.0439453,36.0166016 68.1064453,40.9970703 C67.3740234,44.8056641 67.9819336,47.8598633 69.9301758,50.159668 C71.878418,52.4594727 74.324707,54.6713867 77.269043,56.7954102 C80.2133789,58.9194336 81.956543,60.4648438 82.4985352,61.4316406 C83.0405273,62.3984375 82.9013672,63.3359375 82.0810547,64.2441406 C81.1142578,65.1816406 80.0961914,65.5258789 79.0268555,65.2768555 C77.9575195,65.027832 77.0932617,64.3833008 76.434082,63.3432617 C75.7749023,62.3032227 75.5771484,61.0800781 75.8408203,59.6738281 C74.9326172,59.4980469 74.0610352,59.4174805 73.2260742,59.4321289 C72.3911133,59.4467773 71.5488281,59.7470703 70.6992188,60.3330078 C69.0292969,61.6513672 68.3701172,63.621582 68.7216797,66.2436523 C69.0732422,68.8657227 70.6040039,70.9897461 73.3139648,72.6157227 Z M102.427734,74.1538086 C105.152344,74.4321289 107.496094,73.5678711 109.458984,71.5610352 C111.421875,69.5541992 111.978516,66.3828125 111.128906,62.046875 C111.070312,61.8417969 111.026367,61.6806641 110.99707,61.5634766 C110.90918,61.1826172 110.843262,60.9189453 110.799316,60.7724609 C110.755371,60.6259766 110.71875,60.5673828 110.689453,60.5966797 C110.660156,60.6259766 110.616211,60.7138672 110.557617,60.8603516 C110.499023,61.0361328 110.411133,61.2558594 110.293945,61.5195312 C110.118164,61.9296875 109.803223,62.3032227 109.349121,62.6401367 C108.89502,62.9770508 108.228516,63.1455078 107.349609,63.1455078 C106.207031,63.1455078 105.459961,62.6621094 105.108398,61.6953125 C104.756836,60.7285156 104.595703,59.8056641 104.625,58.9267578 C104.570248,56.545066 104.541078,49.8786176 104.537487,38.9274126 L104.537109,36.5585937 C106.060547,36.03125 106.990723,35.3867188 107.327637,34.625 C107.664551,33.8632812 107.811035,32.8525391 107.76709,31.5927734 C107.723145,30.3330078 107.320312,28.6923828 106.558594,26.6708984 C106.119141,27.3154297 105.445312,27.7841797 104.537109,28.0771484 C104.361328,26.0849609 103.746094,24.7006836 102.691406,23.9243164 C101.636719,23.1479492 100.442871,22.8037109 99.1098633,22.8916016 C97.7768555,22.9794922 96.5976562,23.309082 95.5722656,23.8803711 C94.546875,24.4516602 93.9609375,25.0742187 93.8144531,25.7480469 C94.3125,26.2753906 94.6567383,27.0078125 94.847168,27.9453125 C95.0375977,28.8828125 95.1328125,29.7763672 95.1328125,30.6259766 L95.1328125,30.6259766 L92.0126953,31.5927734 C92.0419922,31.6220703 92.0566406,32.0175781 92.0566406,32.7792969 C92.0566406,33.5410156 92.1079102,34.4345703 92.2104492,35.4599609 C92.3129883,36.4853516 92.6791992,37.2983398 93.309082,37.8989258 C93.9389648,38.4995117 94.546875,38.7851562 95.1328125,38.7558594 L95.1328125,38.7558594 L95.1328125,64.859375 C95.1621094,66.8222656 95.5283203,68.5361328 96.2314453,70.0009766 C97.6376953,72.4912109 99.703125,73.8754883 102.427734,74.1538086 Z M114.073242,32.6914062 C115.479492,32.6914062 116.687988,32.1933594 117.69873,31.1972656 C118.709473,30.2011719 119.214844,28.9853516 119.214844,27.5498047 C119.214844,26.1435547 118.709473,24.9350586 117.69873,23.9243164 C116.687988,22.9135742 115.479492,22.4082031 114.073242,22.4082031 C112.637695,22.4082031 111.421875,22.9135742 110.425781,23.9243164 C109.429688,24.9350586 108.931641,26.1435547 108.931641,27.5498047 C108.931641,28.9853516 109.429688,30.2011719 110.425781,31.1972656 C111.421875,32.1933594 112.637695,32.6914062 114.073242,32.6914062 Z M117.061523,74.3295898 C119.786133,74.6079102 122.122559,73.7436523 124.070801,71.7368164 C126.019043,69.7299805 126.568359,66.5585938 125.71875,62.2226562 C125.689453,62.046875 125.660156,61.8857422 125.630859,61.7392578 C125.542969,61.3583984 125.477051,61.0947266 125.433105,60.9482422 C125.38916,60.8017578 125.352539,60.7431641 125.323242,60.7724609 C125.293945,60.8017578 125.25,60.9042969 125.191406,61.0800781 C125.132812,61.2265625 125.044922,61.4316406 124.927734,61.6953125 C124.751953,62.1054688 124.429688,62.4790039 123.960938,62.815918 C123.492188,63.152832 122.833008,63.3212891 121.983398,63.3212891 C120.84082,63.3212891 120.09375,62.8378906 119.742188,61.8710938 C119.390625,60.9042969 119.214844,59.9814453 119.214844,59.1025391 L119.214844,59.1025391 L119.214844,38.9755859 C119.214844,36.7490234 118.680176,35.2036133 117.61084,34.3393555 C116.541504,33.4750977 115.318359,33.0722656 113.941406,33.1308594 C112.564453,33.1894531 111.341309,33.5043945 110.271973,34.0756836 C109.202637,34.6469727 108.594727,35.2841797 108.448242,35.9873047 C108.916992,36.4560547 109.246582,37.1152344 109.437012,37.9648438 C109.627441,38.8144531 109.737305,39.6567383 109.766602,40.4916992 C109.795898,41.3266602 109.795898,49.5078125 109.766602,65.0351562 C109.766602,66.9980469 110.132812,68.7119141 110.865234,70.1767578 C112.271484,72.6669922 114.336914,74.0512695 117.061523,74.3295898 Z M125.894531,71.0996094 C128.501953,73.9414062 131.695312,74.8276367 135.474609,73.7583008 C139.253906,72.6889648 142.710938,69.5761719 145.845703,64.4199219 C148.980469,58.9121094 151.148438,53.1113281 152.349609,47.0175781 L152.349609,47.0175781 L158.633789,46.7539063 L159.029297,43.2382812 L152.876953,43.4140625 C153.316406,38.9023438 152.554688,35.5917969 150.591797,33.4824219 C148.541016,31.7832031 146.365723,31.3291016 144.065918,32.1201172 C141.766113,32.9111328 140.015625,34.3613281 138.814453,36.4707031 C137.876953,38.4042969 137.745117,40.2426758 138.418945,41.9858398 C139.092773,43.7290039 140.411133,45.0546875 142.374023,45.9628906 C141.407227,51.2070312 139.913086,55.7333984 137.891602,59.5419922 C136.573242,61.8564453 135.298828,63.0209961 134.068359,63.0356445 C132.837891,63.050293 132.134766,61.6806641 131.958984,58.9267578 L131.958984,58.9267578 L131.958984,38.7998047 C131.958984,36.5732422 131.424316,35.027832 130.35498,34.1635742 C129.285645,33.2993164 128.0625,32.8964844 126.685547,32.9550781 C125.308594,33.0136719 124.085449,33.3286133 123.016113,33.8999023 C121.946777,34.4711914 121.338867,35.1083984 121.192383,35.8115234 C121.661133,36.2802734 121.990723,36.9394531 122.181152,37.7890625 C122.371582,38.6386719 122.444824,42.5864258 122.400879,49.6323242 C122.356934,56.6782227 122.510742,61.4975586 122.862305,64.090332 C123.213867,66.6831055 124.224609,69.0195312 125.894531,71.0996094 Z M183.243164,74.8789062 C185.90918,75.0546875 188.172363,74.1318359 190.032715,72.1103516 C191.893066,70.0888672 192.398438,66.9541016 191.548828,62.7060547 C191.519531,62.5302734 191.490234,62.3837891 191.460938,62.2666016 C191.373047,61.8857422 191.307129,61.6220703 191.263184,61.4755859 C191.219238,61.3291016 191.182617,61.2705078 191.15332,61.2998047 C191.124023,61.3291016 191.080078,61.4169922 191.021484,61.5634766 C190.962891,61.7392578 190.875,61.9589844 190.757812,62.2226562 C190.582031,62.6328125 190.26709,63.0063477 189.812988,63.3432617 C189.358887,63.6801758 188.692383,63.8486328 187.813477,63.8486328 C186.670898,63.8486328 185.923828,63.3652344 185.572266,62.3984375 C185.220703,61.4316406 185.05957,60.4941406 185.088867,59.5859375 L185.088867,59.5859375 L185.000977,44.8642578 L185.044922,39.0195312 C185.044922,36.7636719 184.50293,35.2036133 183.418945,34.3393555 C182.334961,33.4750977 181.097168,33.0795898 179.705566,33.152832 C178.313965,33.2260742 177.076172,33.5703125 175.992188,34.1855469 C173.912109,33.5703125 171.744141,33.3066406 169.488281,33.3945312 C167.232422,33.4824219 165.313477,33.9072266 163.731445,34.6689453 C160.333008,36.4267578 157.762207,39.2319336 156.019043,43.0844727 C154.275879,46.9370117 153.616699,51.2363281 154.041504,55.9824219 C154.466309,60.7285156 155.733398,64.6469727 157.842773,67.737793 C159.952148,70.8286133 163.086914,72.8867188 167.24707,73.9121094 C171.172852,74.5859375 174.410156,73.6630859 176.958984,71.1435547 C178.482422,73.4580078 180.577148,74.703125 183.243164,74.8789062 Z M172.740234,63.0576172 C169.634766,64.9033203 167.181152,64.1269531 165.379395,60.7285156 C163.577637,57.3300781 163.423828,52.8623047 164.917969,47.3251953 C166.265625,44.0732422 168.265137,42.5717773 170.916504,42.8208008 C173.567871,43.0698242 175.12793,45.171875 175.59668,49.1269531 C175.68457,54.6640625 175.428223,58.2163086 174.827637,59.7836914 C174.227051,61.3510742 173.53125,62.4423828 172.740234,63.0576172 Z M195.767578,74.065918 C198.492188,74.3442383 200.828613,73.4726562 202.776855,71.4511719 C204.725098,69.4296875 205.274414,66.2509766 204.424805,61.9150391 C204.395508,61.7392578 204.366211,61.578125 204.336914,61.4316406 C204.249023,61.0507812 204.183105,60.7944336 204.13916,60.6625977 C204.095215,60.5307617 204.058594,60.4794922 204.029297,60.5087891 C204,60.5380859 203.956055,60.6259766 203.897461,60.7724609 C203.838867,60.9482422 203.750977,61.1679688 203.633789,61.4316406 C203.458008,61.8417969 203.135742,62.215332 202.666992,62.5522461 C202.198242,62.8891602 201.539062,63.0576172 200.689453,63.0576172 C199.546875,63.0576172 198.799805,62.5742188 198.448242,61.6074219 C198.09668,60.640625 197.920898,59.703125 197.920898,58.7949219 L197.920898,58.7949219 L197.920898,28.1650391 C197.920898,25.9384766 197.38623,24.3930664 196.316895,23.5288086 C195.247559,22.6645508 194.024414,22.2617187 192.647461,22.3203125 C191.270508,22.3789062 190.047363,22.6938477 188.978027,23.2651367 C187.908691,23.8364258 187.300781,24.4736328 187.154297,25.1767578 C187.623047,25.6455078 187.952637,26.3046875 188.143066,27.1542969 C188.333496,28.0039062 188.443359,28.8388672 188.472656,29.6591797 C188.501953,30.4794922 188.501953,31.0947266 188.472656,31.5048828 L188.472656,31.5048828 L188.472656,64.7714844 C188.472656,66.7050781 188.838867,68.4042969 189.571289,69.8691406 C190.977539,72.3886719 193.042969,73.7875977 195.767578,74.065918 Z" id="path-1"></path>
        <path d="M146.0415,24 C146.1695,24 146.2495,23.904 146.2495,23.792 L146.2495,18.592 L151.3375,18.592 C151.4495,18.592 151.5295,18.512 151.5295,18.384 C151.5295,18.288 151.4495,18.192 151.3375,18.192 L146.2495,18.192 L146.2495,13.2 L152.0255,13.2 C152.1375,13.2 152.2175,13.12 152.2175,13.008 C152.2175,12.896 152.1375,12.8 152.0255,12.8 L146.0415,12.8 C145.9455,12.8 145.8655,12.896 145.8655,13.008 L145.8655,23.792 C145.8655,23.904 145.9455,24 146.0415,24 Z M155.5935,14.416 C155.6895,14.416 155.7855,14.32 155.7855,14.224 L155.7855,13.84 C155.7855,13.712 155.6895,13.632 155.5935,13.632 C155.4655,13.632 155.3855,13.712 155.3855,13.84 L155.3855,14.224 C155.3855,14.32 155.4655,14.416 155.5935,14.416 Z M155.5935,24 C155.6895,24 155.7855,23.904 155.7855,23.792 L155.7855,16.352 C155.7855,16.224 155.6895,16.16 155.5935,16.16 C155.4655,16.16 155.3855,16.224 155.3855,16.352 L155.3855,23.792 C155.3855,23.904 155.4655,24 155.5935,24 Z M159.8495,24 C159.9615,24 160.0415,23.904 160.0415,23.792 L160.0415,13.008 C160.0415,12.896 159.9615,12.8 159.8495,12.8 C159.7215,12.8 159.6415,12.896 159.6415,13.008 L159.6415,23.792 C159.6415,23.904 159.7215,24 159.8495,24 Z M163.7375,24 C163.7695,24 163.8175,23.984 163.8495,23.952 C163.8655,23.952 163.8655,23.936 163.8815,23.936 C163.8815,23.92 163.8815,23.92 163.8975,23.904 C163.9135,23.872 163.9295,23.84 163.9295,23.792 L163.9295,19.216 C163.9775,17.744 165.1935,16.56 166.6655,16.56 C168.1855,16.56 169.4175,17.792 169.4175,19.328 L169.4175,23.792 C169.4175,23.904 169.4975,24 169.6095,24 C169.6735,24 169.7215,23.984 169.7695,23.936 C169.7695,23.92 169.7695,23.92 169.7855,23.904 C169.7855,23.888 169.8015,23.872 169.8015,23.856 C169.8175,23.84 169.8175,23.824 169.8175,23.792 L169.8175,19.216 C169.8655,17.744 171.0815,16.56 172.5695,16.56 C174.0575,16.56 175.2895,17.792 175.2895,19.328 L175.2895,23.792 C175.2895,23.904 175.4015,24 175.4975,24 C175.6095,24 175.6895,23.904 175.6895,23.792 L175.6895,19.328 C175.6895,17.584 174.2975,16.16 172.5695,16.16 C171.2095,16.16 170.0575,17.008 169.6095,18.208 C169.1615,17.008 168.0095,16.16 166.6655,16.16 C165.4815,16.16 164.4735,16.816 163.9295,17.792 L163.9295,16.368 C163.9295,16.24 163.8335,16.16 163.7375,16.16 C163.6095,16.16 163.5455,16.24 163.5455,16.368 L163.5455,18.944 C163.5295,19.072 163.5135,19.2 163.5135,19.328 L163.5135,23.792 C163.5135,23.904 163.5935,23.984 163.6895,24 L163.7375,24 Z M181.0015,24 C182.5215,24 183.8175,23.088 183.8335,21.856 C183.8335,21.248 183.4975,20.752 183.0015,20.416 C182.4895,20.08 181.8175,19.904 181.0335,19.744 L181.0175,19.744 C180.3135,19.6 179.7215,19.408 179.3215,19.136 C178.9215,18.864 178.7295,18.56 178.7295,18.144 C178.7295,17.728 178.9535,17.36 179.3535,17.056 C179.7535,16.752 180.3295,16.56 180.9855,16.56 C181.8495,16.56 182.5215,17.008 183.1295,17.408 C183.2255,17.472 183.3535,17.44 183.4175,17.344 C183.4559,17.28 183.45334,17.18528 183.401628,17.117184 L183.3535,17.072 C182.7455,16.656 181.9775,16.16 180.9855,16.16 C179.5455,16.16 178.3295,17.008 178.3135,18.144 C178.3135,18.704 178.6335,19.168 179.0975,19.472 C179.5615,19.808 180.2015,20 180.9215,20.112 L180.9695,20.112 C181.7215,20.256 182.3295,20.464 182.7775,20.752 C183.2095,21.056 183.4175,21.408 183.4335,21.856 C183.4335,22.32 183.1775,22.752 182.7295,23.072 C182.2815,23.392 181.6895,23.6 181.0015,23.6 C179.9615,23.6 178.9855,23.056 178.4095,22.592 C178.3135,22.496 178.1855,22.512 178.1215,22.624 C178.0575,22.704 178.0575,22.816 178.1535,22.88 C178.7775,23.392 179.8175,24 181.0015,24 Z M198.2495,24 C198.3775,24 198.4575,23.904 198.4575,23.792 L198.4575,13.04 C198.4575,12.928 198.3775,12.8 198.2495,12.8 C198.1535,12.8 198.0575,12.928 198.0575,13.04 L198.0575,18.32 C197.4335,17.04 196.1535,16.16 194.6815,16.16 C192.5695,16.16 190.8735,17.92 190.8735,20.064 C190.8735,22.224 192.5695,24 194.6815,24 C196.1535,24 197.4335,23.12 198.0575,21.856 L198.0575,23.792 C198.0575,23.904 198.1535,24 198.2495,24 Z M194.6815,23.6 C192.8095,23.6 191.2735,22.016 191.2735,20.064 C191.2735,18.128 192.8095,16.56 194.6815,16.56 C196.4735,16.56 197.9935,18.048 198.0575,19.92 L198.0575,20.064 C198.0575,22.016 196.5215,23.6 194.6815,23.6 Z M204.9695,24 C206.2815,24 207.4495,23.264 208.1215,22.224 C208.1855,22.128 208.1535,22 208.0735,21.952 C207.9615,21.904 207.8495,21.904 207.7855,22 C207.1935,22.96 206.1535,23.6 204.9695,23.6 C203.0815,23.584 201.5615,22 201.5615,20.08 L201.5615,20.032 L208.5375,20.032 C208.6335,20.032 208.7135,19.936 208.7295,19.84 L208.7295,19.776 C208.5855,17.744 206.9695,16.16 204.9695,16.16 C202.8735,16.16 201.1935,17.904 201.1615,20.08 C201.1935,22.224 202.8735,23.968 204.9695,24 Z M208.3295,19.648 L201.5775,19.648 C201.7855,17.904 203.2255,16.576 204.9695,16.576 C206.6815,16.576 208.1215,17.904 208.3295,19.648 Z M216.6495,24 C216.7615,24 216.8415,23.904 216.8415,23.792 L216.8415,19.024 L219.9295,19.024 C221.6415,19.024 223.0495,17.648 223.0495,15.92 C223.0495,14.192 221.6415,12.8 219.9295,12.8 L216.6495,12.8 C216.5375,12.8 216.4415,12.896 216.4415,13.008 L216.4415,23.792 C216.4415,23.904 216.5375,24 216.6495,24 Z M219.9295,18.608 L216.8415,18.608 L216.8415,13.2 L219.9295,13.2 C221.4175,13.2 222.6335,14.416 222.6335,15.92 C222.6335,17.424 221.4175,18.608 219.9295,18.608 Z M225.9135,24 C226.0255,24 226.1055,23.904 226.1055,23.792 L226.1055,13.008 C226.1055,12.896 226.0255,12.8 225.9135,12.8 C225.7855,12.8 225.7055,12.896 225.7055,13.008 L225.7055,23.792 C225.7055,23.904 225.7855,24 225.9135,24 Z M233.5455,24 C234.8575,24 236.0255,23.264 236.6975,22.224 C236.7615,22.128 236.7295,22 236.6495,21.952 C236.5375,21.904 236.4255,21.904 236.3615,22 C235.7695,22.96 234.7295,23.6 233.5455,23.6 C231.6575,23.584 230.1375,22 230.1375,20.08 L230.1375,20.032 L237.1135,20.032 C237.2095,20.032 237.2895,19.936 237.3055,19.84 L237.3055,19.776 C237.1615,17.744 235.5455,16.16 233.5455,16.16 C231.4495,16.16 229.7695,17.904 229.7375,20.08 C229.7695,22.224 231.4495,23.968 233.5455,24 Z M236.9055,19.648 L230.1535,19.648 C230.3615,17.904 231.8015,16.576 233.5455,16.576 C235.2575,16.576 236.6975,17.904 236.9055,19.648 Z M240.2655,14.416 C240.3615,14.416 240.4575,14.32 240.4575,14.224 L240.4575,13.84 C240.4575,13.712 240.3615,13.632 240.2655,13.632 C240.1375,13.632 240.0575,13.712 240.0575,13.84 L240.0575,14.224 C240.0575,14.32 240.1375,14.416 240.2655,14.416 Z M240.2655,24 C240.3615,24 240.4575,23.904 240.4575,23.792 L240.4575,16.352 C240.4575,16.224 240.3615,16.16 240.2655,16.16 C240.1375,16.16 240.0575,16.224 240.0575,16.352 L240.0575,23.792 C240.0575,23.904 240.1375,24 240.2655,24 Z M244.7455,24 C244.8095,24 244.8575,23.968 244.8895,23.92 C244.9215,23.888 244.9375,23.84 244.9375,23.792 L244.9375,19.328 C244.9375,17.776 246.2015,16.56 247.7055,16.56 C249.2095,16.56 250.4575,17.776 250.4575,19.328 L250.4575,23.792 C250.4575,23.904 250.5215,24 250.6495,24 C250.7615,24 250.8575,23.904 250.8575,23.792 L250.8575,19.328 C250.8575,17.568 249.4335,16.16 247.7055,16.16 C246.5215,16.16 245.4815,16.816 244.9375,17.792 L244.9375,16.352 C244.9375,16.224 244.8575,16.16 244.7455,16.16 C244.6335,16.16 244.5375,16.224 244.5375,16.352 L244.5375,23.824 C244.5375,23.856 244.5535,23.888 244.5695,23.904 C244.5695,23.92 244.5695,23.92 244.5855,23.936 C244.6015,23.952 244.6175,23.968 244.6335,23.968 L244.6815,24 L244.6815,24 L244.7455,24 Z M266.8895,23.968 C266.9055,23.968 266.9215,23.952 266.9535,23.952 C267.0495,23.904 267.1135,23.792 267.0655,23.68 L263.0335,12.928 C262.9855,12.848 262.9055,12.8 262.8255,12.8 C262.7295,12.784 262.6495,12.832 262.6175,12.928 L258.5855,23.68 C258.5375,23.792 258.5855,23.904 258.6815,23.952 C258.7135,23.952 258.7455,23.968 258.7615,23.968 C258.8415,23.968 258.9215,23.904 258.9375,23.824 L260.0095,20.96 L265.6095,20.96 L266.6815,23.824 C266.7295,23.904 266.8095,23.968 266.8895,23.968 Z M265.4495,20.544 L260.1695,20.544 L262.8095,13.536 L265.4495,20.544 Z M269.7055,14.416 C269.8015,14.416 269.8975,14.32 269.8975,14.224 L269.8975,13.84 C269.8975,13.712 269.8015,13.632 269.7055,13.632 C269.5775,13.632 269.4975,13.712 269.4975,13.84 L269.4975,14.224 C269.4975,14.32 269.5775,14.416 269.7055,14.416 Z M269.7055,24 C269.8015,24 269.8975,23.904 269.8975,23.792 L269.8975,16.352 C269.8975,16.224 269.8015,16.16 269.7055,16.16 C269.5775,16.16 269.4975,16.224 269.4975,16.352 L269.4975,23.792 C269.4975,23.904 269.5775,24 269.7055,24 Z M274.1855,24 C274.3135,24 274.3775,23.92 274.3775,23.792 L274.3775,20.128 C274.3775,20.128 274.4415,19.936 274.5695,19.584 C274.7775,19.088 275.1615,18.288 275.7215,17.648 C276.2495,17.056 277.0015,16.576 277.9935,16.576 C278.1215,16.576 278.2015,16.48 278.2015,16.368 C278.2015,16.256 278.1215,16.16 277.9935,16.16 C276.4895,16.16 275.4815,17.184 274.8735,18.096 C274.6655,18.416 274.5055,18.736 274.3775,19.024 L274.3775,16.368 C274.3775,16.256 274.3135,16.16 274.1855,16.16 C274.0895,16.16 273.9935,16.256 273.9935,16.368 L273.9935,20.032 C273.9775,20.08 273.9775,20.096 273.9935,20.128 L273.9935,23.792 C273.9935,23.92 274.0895,24 274.1855,24 Z" id="path-2"></path>
    </defs>
    <g id="Page-1" stroke="none" stroke-width="1" fill="none" fill-rule="evenodd" opacity="0.9">
        <g id="titrehome_petites_resolutions">
            <rect id="Rectangle" fill="#1E1E1E" fill-rule="nonzero" x="0" y="0" width="4000" height="4000"></rect>
            <g id="Group-5" transform="translate(1771.000000, 1858.000000)">
                <g id="Group-3" transform="translate(93.000000, 105.000000)" fill-rule="nonzero">
                    <polygon id="Star" fill="#D8D8D8" points="9.49999998 14.925233 3.6286771 18 4.74999999 11.4875389 0 6.87538822 6.56433854 5.92523294 9.49999998 0 12.4356615 5.92523294 19 6.87538822 14.25 11.4875389 15.3713228 18"></polygon>
                    <polygon id="Star" fill="#D8D8D8" points="197.5 14.925233 191.628677 18 192.75 11.4875389 188 6.87538822 194.564339 5.92523294 197.5 0 200.435661 5.92523294 207 6.87538822 202.25 11.4875389 203.371323 18"></polygon>
                    <path d="M43.8251953,15 L43.8251953,13.4423828 L43.3793945,13.4423828 L43.3793945,6.56201172 L42.3374023,6.56201172 L41.3759766,6.921875 L41.3759766,8.47949219 L41.8217773,8.47949219 L41.8217773,13.4423828 L41.3759766,13.4423828 L41.3759766,15 L43.8251953,15 Z M49.5024414,15 L49.5024414,12.7602539 L47.9448242,12.7602539 L47.9448242,13.4423828 L46.5805664,13.4423828 L46.5805664,11.5625 L48.7128906,11.5625 L48.7128906,9.99951172 L46.5805664,9.99951172 L46.5805664,8.11962891 L47.9448242,8.11962891 L47.9448242,8.80175781 L49.5024414,8.80175781 L49.5024414,6.56201172 L44.5771484,6.56201172 L44.5771484,8.11962891 L45.0229492,8.11962891 L45.0229492,13.4423828 L44.5771484,13.4423828 L44.5771484,15 L49.5024414,15 Z M52.7089844,15 L52.7089844,13.4423828 L52.2631836,13.4423828 L52.2631836,11.5625 L52.7250977,11.5625 L54.0517578,15 L55.722168,15 L55.722168,13.4423828 L55.1152344,13.4423828 L54.3740234,11.5410156 L55.4375,10.5473633 L55.4375,7.44824219 L54.4438477,6.56201172 L50.2543945,6.56201172 L50.2543945,8.11962891 L50.7001953,8.11962891 L50.7001953,13.4423828 L50.2543945,13.4423828 L50.2543945,15 L52.7089844,15 Z M53.8798828,9.99951172 L52.2631836,9.99951172 L52.2631836,8.11962891 L53.8798828,8.11962891 L53.8798828,9.99951172 Z M61.3994141,15 L61.3994141,12.7602539 L59.8417969,12.7602539 L59.8417969,13.4423828 L58.4775391,13.4423828 L58.4775391,11.5625 L60.6098633,11.5625 L60.6098633,9.99951172 L58.4775391,9.99951172 L58.4775391,8.11962891 L59.8417969,8.11962891 L59.8417969,8.80175781 L61.3994141,8.80175781 L61.3994141,6.56201172 L56.4741211,6.56201172 L56.4741211,8.11962891 L56.9199219,8.11962891 L56.9199219,13.4423828 L56.4741211,13.4423828 L56.4741211,15 L61.3994141,15 Z M69.762207,15 L69.762207,12.7602539 L68.2045898,12.7602539 L68.2045898,13.4423828 L66.840332,13.4423828 L66.840332,11.5625 L68.9726562,11.5625 L68.9726562,9.99951172 L66.840332,9.99951172 L66.840332,8.11962891 L68.2045898,8.11962891 L68.2045898,8.80175781 L69.762207,8.80175781 L69.762207,6.56201172 L64.8369141,6.56201172 L64.8369141,8.11962891 L65.2827148,8.11962891 L65.2827148,13.4423828 L64.8369141,13.4423828 L64.8369141,15 L69.762207,15 Z M74.7949219,15 L75.8046875,14.1137695 L75.8046875,7.45361328 L74.7949219,6.56201172 L70.5141602,6.56201172 L70.5141602,8.11962891 L70.9599609,8.11962891 L70.9599609,13.4423828 L70.5141602,13.4423828 L70.5141602,15 L74.7949219,15 Z M74.2470703,13.4423828 L72.5229492,13.4423828 L72.5229492,8.11962891 L74.2470703,8.11962891 L74.2470703,13.4423828 Z M78.1142578,15 L78.1142578,13.4423828 L76.5566406,13.4423828 L76.5566406,15 L78.1142578,15 Z M85.2094727,14.9892578 L86.2138672,14.1083984 L86.2138672,10.300293 L85.2148438,9.42480469 L83.1147461,9.42480469 L83.1147461,8.11962891 L84.5864258,8.11962891 L84.5864258,8.80175781 L86.1494141,8.80175781 L86.1494141,6.56201172 L81.5517578,6.56201172 L81.5517578,10.1015625 L82.5454102,10.9824219 L84.6508789,10.9824219 L84.6508789,13.4423828 L83.109375,13.4423828 L83.109375,12.7602539 L81.5517578,12.7602539 L81.5517578,14.1083984 L82.5454102,14.9892578 L85.2094727,14.9892578 Z M92.105957,15 L92.105957,13.4423828 L91.6547852,13.4423828 L91.7890625,12.7602539 L93.2822266,12.7602539 L93.4165039,13.4423828 L92.9760742,13.4423828 L92.9760742,15 L95.4306641,15 L95.4306641,13.4423828 L95.0063477,13.4423828 L93.6313477,6.56201172 L91.4399414,6.56201172 L90.0649414,13.4423828 L89.6513672,13.4423828 L89.6513672,15 L92.105957,15 Z M92.9707031,11.2026367 L92.105957,11.2026367 L92.5356445,9.03808594 L92.9707031,11.2026367 Z M99.8510742,15 L100.871582,14.1137695 L100.871582,8.11962891 L101.317383,8.11962891 L101.317383,6.56201172 L98.862793,6.56201172 L98.862793,8.11962891 L99.3139648,8.11962891 L99.3139648,13.4423828 L97.5683594,13.4423828 L97.5683594,8.11962891 L98.0141602,8.11962891 L98.0141602,6.56201172 L95.5649414,6.56201172 L95.5649414,8.11962891 L96.0107422,8.11962891 L96.0107422,14.1191406 L97.0097656,15 L99.8510742,15 Z M108.477051,15 L109.476074,14.1191406 L109.476074,11.5195312 L108.869141,10.7836914 L109.476074,10.0424805 L109.476074,7.44824219 L108.477051,6.56201172 L105.753906,6.56201172 L104.754883,7.44824219 L104.754883,10.0424805 L105.351074,10.7836914 L104.754883,11.5195312 L104.754883,14.1191406 L105.753906,15 L108.477051,15 Z M107.913086,9.99951172 L106.3125,9.99951172 L106.3125,8.11962891 L107.913086,8.11962891 L107.913086,9.99951172 Z M107.913086,13.4423828 L106.3125,13.4423828 L106.3125,11.5625 L107.913086,11.5625 L107.913086,13.4423828 Z M115.368164,15 L115.368164,13.4423828 L114.916992,13.4423828 L115.05127,12.7602539 L116.544434,12.7602539 L116.678711,13.4423828 L116.238281,13.4423828 L116.238281,15 L118.692871,15 L118.692871,13.4423828 L118.268555,13.4423828 L116.893555,6.56201172 L114.702148,6.56201172 L113.327148,13.4423828 L112.913574,13.4423828 L112.913574,15 L115.368164,15 Z M116.23291,11.2026367 L115.368164,11.2026367 L115.797852,9.03808594 L116.23291,11.2026367 Z M123.338867,15 L124.343262,14.1191406 L124.343262,7.44824219 L123.338867,6.56201172 L120.438477,6.56201172 L119.444824,7.44824219 L119.444824,14.1191406 L120.438477,15 L123.338867,15 Z M122.780273,13.4423828 L121.002441,13.4423828 L121.002441,8.11962891 L122.780273,8.11962891 L122.780273,13.4423828 Z M129.381348,15 L130.401855,14.1137695 L130.401855,8.11962891 L130.847656,8.11962891 L130.847656,6.56201172 L128.393066,6.56201172 L128.393066,8.11962891 L128.844238,8.11962891 L128.844238,13.4423828 L127.098633,13.4423828 L127.098633,8.11962891 L127.544434,8.11962891 L127.544434,6.56201172 L125.095215,6.56201172 L125.095215,8.11962891 L125.541016,8.11962891 L125.541016,14.1191406 L126.540039,15 L129.381348,15 Z M135.601074,15 L135.601074,13.4423828 L135.155273,13.4423828 L135.155273,8.11962891 L135.590332,8.11962891 L135.590332,8.80175781 L137.147949,8.80175781 L137.147949,6.56201172 L131.599609,6.56201172 L131.599609,8.80175781 L133.157227,8.80175781 L133.157227,8.11962891 L133.592285,8.11962891 L133.592285,13.4423828 L133.146484,13.4423828 L133.146484,15 L135.601074,15 Z M145.30127,15 L145.30127,12.7602539 L143.743652,12.7602539 L143.743652,13.4423828 L142.143066,13.4423828 L142.143066,11.5625 L144.275391,11.5625 L145.30127,10.6762695 L145.30127,7.44287109 L144.302246,6.56201172 L141.589844,6.56201172 L140.585449,7.44287109 L140.585449,8.80175781 L142.15918,8.80175781 L142.15918,8.11962891 L143.743652,8.11962891 L143.743652,9.99951172 L141.589844,9.99951172 L140.585449,10.8803711 L140.585449,15 L145.30127,15 Z M149.82373,15 L150.833496,14.1191406 L150.833496,7.44824219 L149.82373,6.56201172 L147.062988,6.56201172 L146.053223,7.44824219 L146.053223,14.1191406 L147.041504,15 L149.82373,15 Z M149.275879,13.4423828 L147.61084,13.4423828 L147.61084,8.11962891 L149.275879,8.11962891 L149.275879,13.4423828 Z M156.30127,15 L156.30127,12.7602539 L154.743652,12.7602539 L154.743652,13.4423828 L153.143066,13.4423828 L153.143066,11.5625 L155.275391,11.5625 L156.30127,10.6762695 L156.30127,7.44287109 L155.302246,6.56201172 L152.589844,6.56201172 L151.585449,7.44287109 L151.585449,8.80175781 L153.15918,8.80175781 L153.15918,8.11962891 L154.743652,8.11962891 L154.743652,9.99951172 L152.589844,9.99951172 L151.585449,10.8803711 L151.585449,15 L156.30127,15 Z M160.82373,15 L161.833496,14.1191406 L161.833496,7.44824219 L160.82373,6.56201172 L158.062988,6.56201172 L157.053223,7.44824219 L157.053223,14.1191406 L158.041504,15 L160.82373,15 Z M160.275879,13.4423828 L158.61084,13.4423828 L158.61084,8.11962891 L160.275879,8.11962891 L160.275879,13.4423828 Z" id="1ereed.5au8aout2020" fill="#C6C6C6"></path>
                </g>
                <g id="Group-4" transform="translate(96.000000, 15.000000)" fill-rule="nonzero">
                    <g id="Festival">
                        <g>
                            <use fill="#000000" xlink:href="#path-1"></use>
                            <use fill="#D8D8D8" xlink:href="#path-1"></use>
                        </g>
                    </g>
                </g>
                <g id="Group-2">
                    <path d="M0,60 C69.7001728,20 143.200173,0 220.5,0 C297.799827,0 377.63316,20 460,60" id="Path"></path>
                    <g id="FilmsdePleinAir" fill-rule="nonzero">
                        <use fill="#000000" xlink:href="#path-2"></use>
                        <use fill="#D8D8D8" xlink:href="#path-2"></use>
                    </g>
                </g>
            </g>
        </g>
    </g>
</svg>