<?xml version="1.0" encoding="UTF-8"?>
<svg width="4000px" height="4000px" viewBox="0 0 4000 4000" version="1.1" xmlns="http://www.w3.org/2000/svg" xmlns:xlink="http://www.w3.org/1999/xlink">
    <!-- Generator: Sketch 63.1 (92452) - https://sketch.com -->
    <title>titrehome</title>
    <desc>Created with Sketch.</desc>
    <defs>
        <path d="M30.240234,98.2636719 C32.2324215,98.3222656 33.9999996,97.7851562 35.5429684,96.6523438 C37.0859371,95.5195312 37.8574215,93.4492188 37.8574215,90.4414062 C37.8574215,84.1523438 37.896484,77.5507812 37.974609,70.6367188 L37.974609,70.6367188 L37.974609,57.2773438 C40.943359,57.1992188 43.0917965,57.1601562 44.4199215,57.1601562 C47.3886715,57.1601562 49.4492184,56.4472656 50.6015621,55.0214844 C51.7539059,53.5957031 52.2910153,51.9648438 52.2128903,50.1289062 C52.1347653,48.2929688 51.7148434,46.6621094 50.9531246,45.2363281 C50.1914059,43.8105469 49.3417965,43 48.4042965,42.8046875 C47.4667965,43.703125 46.1874996,44.2402344 44.5664059,44.4160156 C42.9453121,44.5917969 41.333984,44.640625 39.7324215,44.5625 L39.7324215,44.5625 L37.974609,44.5625 C37.974609,40.890625 37.9550778,37.3164062 37.9160153,33.8398438 L37.9160153,33.8398438 L37.9166012,33.6330078 C37.9201168,33.1654297 37.9394528,32.4921875 37.974609,31.6132812 C38.0136715,30.6367188 38.130859,29.6210938 38.3261715,28.5664062 C40.2792965,28.5664062 41.9296871,28.5566406 43.2773434,28.5371094 C44.6249996,28.5175781 45.943359,28.5078125 47.2324215,28.5078125 C48.6386715,28.46875 50.396484,28.4492188 52.505859,28.4492188 L61.2363278,28.4492188 C64.2050778,28.4492188 66.2656246,27.7363281 67.4179684,26.3105469 C68.5703121,24.8847656 69.1074215,23.2539062 69.0292965,21.4179688 C68.9511715,19.5820312 68.5312496,17.9511719 67.7695309,16.5253906 C67.0078121,15.0996094 66.1582028,14.2890625 65.2207028,14.09375 C64.2832028,14.953125 62.9062496,15.4707031 61.0898434,15.6464844 C59.2734371,15.8222656 57.5644528,15.890625 55.9628903,15.8515625 L55.9628903,15.8515625 L45.7382809,15.8515625 C43.6874996,15.8515625 41.958984,15.8710938 40.552734,15.9101562 L40.552734,15.9101562 L34.1660153,15.9101562 C20.6503903,16.3789062 11.6562496,19.2890625 7.18359338,24.640625 C2.71093713,29.9921875 1.5292965,35.0898438 3.6386715,39.9335938 C5.7480465,44.7773438 9.927734,46.671875 16.177734,45.6171875 C14.4199215,42.1015625 14.3906246,38.9082031 16.0898434,36.0371094 C17.7890621,33.1660156 20.3378903,30.8125 23.7363278,28.9765625 C23.8535153,28.9375 23.990234,28.8984375 24.146484,28.859375 L24.146484,28.859375 L24.0878903,44.6796875 C21.4316403,44.9140625 19.6054684,45.7441406 18.6093746,47.1699219 C17.6132809,48.5957031 17.1738278,50.1972656 17.2910153,51.9746094 C17.4082028,53.7519531 17.8378903,55.3242188 18.5800778,56.6914063 C19.3222653,58.0585938 20.1425778,58.8203125 21.0410153,58.9765625 C21.7832027,58.3125 22.7988278,57.8632812 24.0878903,57.6289062 L24.0878903,57.6289062 L24.0292965,85.2265625 C24.1074215,86.7890625 24.0585934,88.4785156 23.8828121,90.2949219 C23.7070309,92.1113281 23.1699215,93.4882812 22.271484,94.4257812 C22.4667965,95.3632812 23.3457028,96.2226562 24.9082028,97.0039062 C26.4707028,97.7851562 28.2480465,98.2050781 30.240234,98.2636719 Z M72.8378903,98.5273438 C78.7363278,98.5273438 84.1269528,96.203125 89.0097653,91.5546875 C90.2597653,90.34375 91.3925778,89.0351562 92.4082028,87.6289062 C93.4238278,86.2226562 94.2929684,84.328125 95.0156246,81.9453125 C95.7382809,79.5625 96.099609,77.2578125 96.099609,75.03125 C96.099609,72.765625 95.708984,70.96875 94.927734,69.640625 L94.927734,69.640625 L94.458984,68.8789062 C94.380859,68.8789062 94.2734371,69.09375 94.1367184,69.5234375 C93.9999996,69.953125 93.7753903,70.578125 93.4628903,71.3984375 C92.7988278,73.15625 91.5976559,75.1777344 89.8593746,77.4628906 C88.1210934,79.7480469 86.0410153,81.8085938 83.6191403,83.6445312 C80.4160153,85.8710938 77.271484,86.984375 74.1855465,86.984375 C68.052734,86.984375 64.302734,83.3710938 62.9355465,76.1445312 C64.068359,76.3398438 65.474609,76.4375 67.1542965,76.4375 C68.2480465,76.4375 69.458984,76.3984375 70.787109,76.3203125 C74.1074215,76.125 77.3105465,75.1289062 80.396484,73.3320312 C84.458984,70.6757812 87.2617184,67.8339844 88.8046871,64.8066406 C90.3476559,61.7792969 91.1191403,59.1132812 91.1191403,56.8085938 C91.1191403,55.2851562 90.865234,53.7421875 90.3574215,52.1796875 C87.818359,45.8515625 83.2285153,42.6875 76.5878903,42.6875 C75.6503903,42.6875 74.6738278,42.7460938 73.6582028,42.8632812 C65.9628903,43.8398438 60.083984,47.1699219 56.021484,52.8535156 C51.958984,58.5371094 49.927734,64.2890625 49.927734,70.109375 C49.927734,76.046875 50.5917965,80.6953125 51.9199215,84.0546875 C53.130859,87.21875 54.5957028,89.7578125 56.3144528,91.671875 C58.8535153,94.5234375 62.115234,96.4960938 66.099609,97.5898438 C68.4042965,98.2148438 70.6503903,98.5273438 72.8378903,98.5273438 Z M67.2128903,68.234375 C65.6113278,68.234375 64.1855465,68.1171875 62.9355465,67.8828125 C63.9511715,62.84375 65.6796871,59.2207031 68.1210934,57.0136719 C70.5624996,54.8066406 72.6425778,53.703125 74.3613278,53.703125 C75.0644528,53.703125 75.7285153,53.8398438 76.3535153,54.1132812 C77.8769528,54.6992188 78.6386715,55.9296875 78.6386715,57.8046875 C78.6386715,60.5 77.6230465,62.9023438 75.5917965,65.0117188 C74.4199215,66.2617188 73.1503903,67.1210938 71.7832028,67.5898438 C70.2207028,68.0195312 68.6972653,68.234375 67.2128903,68.234375 Z M97.5937496,96.1542969 C101.207031,98.3222656 106.216797,98.703125 112.623047,97.296875 C117.427734,95.6953125 120.464843,92.9023438 121.734375,88.9179688 C123.003906,84.9335938 122.642578,81.0078125 120.65039,77.140625 C118.46289,74.171875 115.435547,71.1640625 111.568359,68.1171875 C110.083984,67.1015625 108.677734,66.046875 107.349609,64.953125 C103.599609,62.0234375 101.851562,59.5429688 102.105468,57.5117188 C102.359375,55.4804688 103.501953,54.171875 105.533203,53.5859375 C107.564453,53 109.371093,53.4199219 110.953125,54.8457031 C112.535156,56.2714844 112.759765,58.9960938 111.626953,63.0195312 C117.720703,63.0976562 121.373047,61.515625 122.583984,58.2734375 C123.794922,55.03125 123.0625,51.7402344 120.386718,48.4003906 C117.710937,45.0605469 113.345703,43.2148438 107.291015,42.8632812 C97.4472653,43.6445312 91.9003903,47.3554688 90.6503903,53.9960938 C89.6738278,59.0742188 90.4843746,63.1464844 93.0820309,66.2128906 C95.6796871,69.2792969 98.9414059,72.2285156 102.867187,75.0605469 C106.792968,77.8925781 109.117187,79.953125 109.839843,81.2421875 C110.5625,82.53125 110.376953,83.78125 109.283203,84.9921875 C107.99414,86.2421875 106.636718,86.7011719 105.210937,86.3691406 C103.785156,86.0371094 102.632812,85.1777344 101.753906,83.7910156 C100.875,82.4042969 100.611328,80.7734375 100.96289,78.8984375 C99.7519528,78.6640625 98.5898434,78.5566406 97.4765621,78.5761719 C96.3632809,78.5957031 95.240234,78.9960938 94.1074215,79.7773438 C91.880859,81.5351562 91.0019528,84.1621094 91.4707028,87.6582031 C91.9394528,91.1542969 93.9804684,93.9863281 97.5937496,96.1542969 Z M136.412109,98.2050781 C140.044921,98.5761719 143.169921,97.4238281 145.787109,94.7480469 C148.404296,92.0722656 149.146484,87.84375 148.013671,82.0625 C147.935546,81.7890625 147.876953,81.5742188 147.83789,81.4179688 C147.720703,80.9101562 147.632812,80.5585938 147.574218,80.3632812 C147.515625,80.1679688 147.466796,80.0898438 147.427734,80.1289062 C147.388671,80.1679688 147.330078,80.2851562 147.251953,80.4804688 C147.173828,80.7148438 147.05664,81.0078125 146.90039,81.359375 C146.666015,81.90625 146.246093,82.4042969 145.640625,82.8535156 C145.035156,83.3027344 144.146484,83.5273438 142.974609,83.5273438 C141.451171,83.5273438 140.455078,82.8828125 139.986328,81.59375 C139.517578,80.3046875 139.302734,79.0742188 139.341796,77.9023438 C139.270093,74.7832299 139.231294,66.1525028 139.225401,52.0101626 L139.224609,48.078125 C141.255859,47.375 142.496093,46.515625 142.945312,45.5 C143.394531,44.484375 143.589843,43.1367188 143.53125,41.4570312 C143.472656,39.7773438 142.935546,37.5898438 141.919921,34.8945312 C141.333984,35.7539062 140.435546,36.3789062 139.224609,36.7695312 C138.990234,34.1132812 138.169921,32.2675781 136.763671,31.2324219 C135.357421,30.1972656 133.765625,29.7382812 131.988281,29.8554688 C130.210937,29.9726562 128.638671,30.4121094 127.271484,31.1738281 C125.904296,31.9355469 125.123046,32.765625 124.927734,33.6640625 C125.591796,34.3671875 126.050781,35.34375 126.304687,36.59375 C126.558593,37.84375 126.685546,39.0351562 126.685546,40.1679688 L126.685546,40.1679688 L122.52539,41.4570312 C122.564453,41.4960938 122.583984,42.0234375 122.583984,43.0390625 C122.583984,44.0546875 122.652343,45.2460938 122.789062,46.6132812 C122.925781,47.9804688 123.414062,49.0644531 124.253906,49.8652344 C125.09375,50.6660156 125.904296,51.046875 126.685546,51.0078125 L126.685546,51.0078125 L126.685546,85.8125 C126.724609,88.4296875 127.21289,90.7148438 128.15039,92.6679688 C130.02539,95.9882812 132.779296,97.8339844 136.412109,98.2050781 Z M151.939453,42.921875 C153.814453,42.921875 155.425781,42.2578125 156.773437,40.9296875 C158.121093,39.6015625 158.794921,37.9804688 158.794921,36.0664062 C158.794921,34.1914062 158.121093,32.5800781 156.773437,31.2324219 C155.425781,29.8847656 153.814453,29.2109375 151.939453,29.2109375 C150.02539,29.2109375 148.404296,29.8847656 147.076171,31.2324219 C145.748046,32.5800781 145.083984,34.1914062 145.083984,36.0664062 C145.083984,37.9804688 145.748046,39.6015625 147.076171,40.9296875 C148.404296,42.2578125 150.02539,42.921875 151.939453,42.921875 Z M155.923828,98.4394531 C159.55664,98.8105469 162.671875,97.6582031 165.269531,94.9824219 C167.867187,92.3066406 168.599609,88.078125 167.466796,82.296875 C167.427734,82.0625 167.388671,81.8476562 167.349609,81.6523438 C167.232421,81.1445312 167.144531,80.7929688 167.085937,80.5976562 C167.027343,80.4023438 166.978515,80.3242188 166.939453,80.3632812 C166.90039,80.4023438 166.841796,80.5390625 166.763671,80.7734375 C166.685546,80.96875 166.568359,81.2421875 166.412109,81.59375 C166.177734,82.140625 165.748046,82.6386719 165.123046,83.0878906 C164.498046,83.5371094 163.61914,83.7617188 162.486328,83.7617188 C160.96289,83.7617188 159.966796,83.1171875 159.498046,81.828125 C159.029296,80.5390625 158.794921,79.3085938 158.794921,78.1367188 L158.794921,78.1367188 L158.794921,51.3007812 C158.794921,48.3320312 158.082031,46.2714844 156.65625,45.1191406 C155.230468,43.9667969 153.599609,43.4296875 151.763671,43.5078125 C149.927734,43.5859375 148.296875,44.0058594 146.871093,44.7675781 C145.445312,45.5292969 144.634765,46.3789062 144.439453,47.3164062 C145.064453,47.9414062 145.503906,48.8203125 145.757812,49.953125 C146.011718,51.0859375 146.158203,52.2089844 146.197265,53.3222656 C146.236328,54.4355469 146.236328,65.34375 146.197265,86.046875 C146.197265,88.6640625 146.685546,90.9492188 147.662109,92.9023438 C149.537109,96.2226562 152.291015,98.0683594 155.923828,98.4394531 Z M167.701171,94.1328125 C171.177734,97.921875 175.435546,99.1035156 180.474609,97.6777344 C185.513671,96.2519531 190.123046,92.1015625 194.302734,85.2265625 C198.482421,77.8828125 201.373046,70.1484375 202.974609,62.0234375 L202.974609,62.0234375 L211.353515,61.671875 L211.880859,56.984375 L203.677734,57.21875 C204.263671,51.203125 203.248046,46.7890625 200.630859,43.9765625 C197.896484,41.7109375 194.996093,41.1054688 191.929687,42.1601562 C188.863281,43.2148438 186.529296,45.1484375 184.927734,47.9609375 C183.677734,50.5390625 183.501953,52.9902344 184.40039,55.3144531 C185.298828,57.6386719 187.05664,59.40625 189.673828,60.6171875 C188.384765,67.609375 186.392578,73.6445312 183.697265,78.7226562 C181.939453,81.8085938 180.240234,83.3613281 178.599609,83.3808594 C176.958984,83.4003906 176.021484,81.5742188 175.787109,77.9023438 L175.787109,77.9023438 L175.787109,51.0664062 C175.787109,48.0976562 175.074218,46.0371094 173.648437,44.8847656 C172.222656,43.7324219 170.591796,43.1953125 168.755859,43.2734375 C166.919921,43.3515625 165.289062,43.7714844 163.863281,44.5332031 C162.4375,45.2949219 161.626953,46.1445312 161.43164,47.0820312 C162.05664,47.7070312 162.496093,48.5859375 162.75,49.71875 C163.003906,50.8515625 163.101562,56.1152344 163.042968,65.5097656 C162.984375,74.9042969 163.189453,81.3300781 163.658203,84.7871094 C164.126953,88.2441406 165.474609,91.359375 167.701171,94.1328125 Z M244.166015,99.171875 C247.720703,99.40625 250.738281,98.1757812 253.21875,95.4804688 C255.699218,92.7851562 256.373046,88.6054688 255.240234,82.9414062 C255.201171,82.7070312 255.162109,82.5117188 255.123046,82.3554688 C255.005859,81.8476562 254.917968,81.4960938 254.859375,81.3007812 C254.800781,81.1054688 254.751953,81.0273438 254.71289,81.0664062 C254.673828,81.1054688 254.615234,81.2226562 254.537109,81.4179688 C254.458984,81.6523438 254.341796,81.9453125 254.185546,82.296875 C253.951171,82.84375 253.53125,83.3417969 252.925781,83.7910156 C252.320312,84.2402344 251.43164,84.4648438 250.259765,84.4648438 C248.736328,84.4648438 247.740234,83.8203125 247.271484,82.53125 C246.802734,81.2421875 246.58789,79.9921875 246.626953,78.78125 L246.626953,78.78125 L246.509765,59.1523438 L246.568359,51.359375 C246.568359,48.3515625 245.845703,46.2714844 244.40039,45.1191406 C242.955078,43.9667969 241.304687,43.4394531 239.449218,43.5371094 C237.59375,43.6347656 235.943359,44.09375 234.498046,44.9140625 C231.724609,44.09375 228.833984,43.7421875 225.826171,43.859375 C222.818359,43.9765625 220.259765,44.5429688 218.15039,45.5585938 C213.61914,47.9023438 210.191406,51.6425781 207.867187,56.7792969 C205.542968,61.9160156 204.664062,67.6484375 205.230468,73.9765625 C205.796875,80.3046875 207.486328,85.5292969 210.298828,89.6503906 C213.111328,93.7714844 217.291015,96.515625 222.83789,97.8828125 C228.072265,98.78125 232.388671,97.5507812 235.787109,94.1914062 C237.818359,97.2773438 240.611328,98.9375 244.166015,99.171875 Z M230.162109,83.4101562 C226.021484,85.8710938 222.75,84.8359375 220.347656,80.3046875 C217.945312,75.7734375 217.740234,69.8164062 219.732421,62.4335938 C221.529296,58.0976562 224.195312,56.0957031 227.730468,56.4277344 C231.265625,56.7597656 233.345703,59.5625 233.970703,64.8359375 C234.08789,72.21875 233.746093,76.9550781 232.945312,79.0449219 C232.144531,81.1347656 231.216796,82.5898438 230.162109,83.4101562 Z M260.865234,98.0878906 C264.498046,98.4589844 267.613281,97.296875 270.210937,94.6015625 C272.808593,91.90625 273.541015,87.6679688 272.408203,81.8867188 C272.36914,81.6523438 272.330078,81.4375 272.291015,81.2421875 C272.173828,80.734375 272.085937,80.3925781 272.027343,80.2167969 C271.96875,80.0410156 271.919921,79.9726562 271.880859,80.0117188 C271.841796,80.0507812 271.783203,80.1679688 271.705078,80.3632812 C271.626953,80.5976562 271.509765,80.890625 271.353515,81.2421875 C271.11914,81.7890625 270.689453,82.2871094 270.064453,82.7363281 C269.439453,83.1855469 268.560546,83.4101562 267.427734,83.4101562 C265.904296,83.4101562 264.908203,82.765625 264.439453,81.4765625 C263.970703,80.1875 263.736328,78.9375 263.736328,77.7265625 L263.736328,77.7265625 L263.736328,36.8867188 C263.736328,33.9179688 263.023437,31.8574219 261.597656,30.7050781 C260.171875,29.5527344 258.541015,29.015625 256.705078,29.09375 C254.86914,29.171875 253.238281,29.5917969 251.8125,30.3535156 C250.386718,31.1152344 249.576171,31.9648438 249.380859,32.9023438 C250.005859,33.5273438 250.445312,34.40625 250.699218,35.5390625 C250.953125,36.671875 251.099609,37.7851562 251.138671,38.8789062 C251.177734,39.9726562 251.177734,40.7929688 251.138671,41.3398438 L251.138671,41.3398438 L251.138671,85.6953125 C251.138671,88.2734375 251.626953,90.5390625 252.603515,92.4921875 C254.478515,95.8515625 257.232421,97.7167969 260.865234,98.0878906 Z" id="path-1"></path>
        <path d="M2.6165,15 C2.7845,15 2.8895,14.874 2.8895,14.727 L2.8895,7.902 L9.5675,7.902 C9.7145,7.902 9.8195,7.797 9.8195,7.629 C9.8195,7.503 9.7145,7.377 9.5675,7.377 L2.8895,7.377 L2.8895,0.825 L10.4705,0.825 C10.6175,0.825 10.7225,0.72 10.7225,0.573 C10.7225,0.426 10.6175,0.3 10.4705,0.3 L2.6165,0.3 C2.4905,0.3 2.3855,0.426 2.3855,0.573 L2.3855,14.727 C2.3855,14.874 2.4905,15 2.6165,15 Z M15.1535,2.421 C15.2795,2.421 15.4055,2.295 15.4055,2.169 L15.4055,1.665 C15.4055,1.497 15.2795,1.392 15.1535,1.392 C14.9855,1.392 14.8805,1.497 14.8805,1.665 L14.8805,2.169 C14.8805,2.295 14.9855,2.421 15.1535,2.421 Z M15.1535,15 C15.2795,15 15.4055,14.874 15.4055,14.727 L15.4055,4.962 C15.4055,4.794 15.2795,4.71 15.1535,4.71 C14.9855,4.71 14.8805,4.794 14.8805,4.962 L14.8805,14.727 C14.8805,14.874 14.9855,15 15.1535,15 Z M20.7395,15 C20.8865,15 20.9915,14.874 20.9915,14.727 L20.9915,0.573 C20.9915,0.426 20.8865,0.3 20.7395,0.3 C20.5715,0.3 20.4665,0.426 20.4665,0.573 L20.4665,14.727 C20.4665,14.874 20.5715,15 20.7395,15 Z M25.8425,15 C25.8845,15 25.9475,14.979 25.9895,14.937 C26.0105,14.937 26.0105,14.916 26.0315,14.916 C26.0315,14.895 26.0315,14.895 26.0525,14.874 C26.0735,14.832 26.0945,14.79 26.0945,14.727 L26.0945,8.721 C26.1575,6.789 27.7535,5.235 29.6855,5.235 C31.6805,5.235 33.2975,6.852 33.2975,8.868 L33.2975,14.727 C33.2975,14.874 33.4025,15 33.5495,15 C33.6335,15 33.6965,14.979 33.7595,14.916 C33.7595,14.895 33.7595,14.895 33.7805,14.874 C33.7805,14.853 33.8015,14.832 33.8015,14.811 C33.8155,14.797 33.8201667,14.783 33.8217222,14.7627778 L33.8225,8.721 C33.8855,6.789 35.4815,5.235 37.4345,5.235 C39.3875,5.235 41.0045,6.852 41.0045,8.868 L41.0045,14.727 C41.0045,14.874 41.1515,15 41.2775,15 C41.4245,15 41.5295,14.874 41.5295,14.727 L41.5295,8.868 C41.5295,6.579 39.7025,4.71 37.4345,4.71 C35.6495,4.71 34.1375,5.823 33.5495,7.398 C32.9615,5.823 31.4495,4.71 29.6855,4.71 C28.1315,4.71 26.8085,5.571 26.0945,6.852 L26.0945,4.983 C26.0945,4.815 25.9685,4.71 25.8425,4.71 C25.6745,4.71 25.5905,4.815 25.5905,4.983 L25.5905,8.364 C25.5695,8.532 25.5485,8.7 25.5485,8.868 L25.5485,14.727 C25.5485,14.874 25.6535,14.979 25.7795,15 L25.8425,15 Z M48.5015,15 C50.4965,15 52.1975,13.803 52.2185,12.186 C52.2185,11.388 51.7775,10.737 51.1265,10.296 C50.4545,9.855 49.5725,9.624 48.5435,9.414 L48.5225,9.414 C47.5985,9.225 46.8215,8.973 46.2965,8.616 C45.7715,8.259 45.5195,7.86 45.5195,7.314 C45.5195,6.768 45.8135,6.285 46.3385,5.886 C46.8635,5.487 47.6195,5.235 48.4805,5.235 C49.6145,5.235 50.4965,5.823 51.2945,6.348 C51.4205,6.432 51.5885,6.39 51.6725,6.264 C51.725,6.1765 51.7191667,6.04525 51.6428472,5.95531944 L51.5885,5.907 C50.7905,5.361 49.7825,4.71 48.4805,4.71 C46.5905,4.71 44.9945,5.823 44.9735,7.314 C44.9735,8.049 45.3935,8.658 46.0025,9.057 C46.6115,9.498 47.4515,9.75 48.3965,9.897 L48.4595,9.897 C49.4465,10.086 50.2445,10.359 50.8325,10.737 C51.3995,11.136 51.6725,11.598 51.6935,12.186 C51.6935,12.795 51.3575,13.362 50.7695,13.782 C50.1815,14.202 49.4045,14.475 48.5015,14.475 C47.1365,14.475 45.8555,13.761 45.0995,13.152 C44.9735,13.026 44.8055,13.047 44.7215,13.194 C44.6375,13.299 44.6375,13.446 44.7635,13.53 C45.5825,14.202 46.9475,15 48.5015,15 Z M71.1395,15 C71.3075,15 71.4125,14.874 71.4125,14.727 L71.4125,0.615 C71.4125,0.468 71.3075,0.3 71.1395,0.3 C71.0135,0.3 70.8875,0.468 70.8875,0.615 L70.8875,7.545 C70.0685,5.865 68.3885,4.71 66.4565,4.71 C63.6845,4.71 61.4585,7.02 61.4585,9.834 C61.4585,12.669 63.6845,15 66.4565,15 C68.3885,15 70.0685,13.845 70.8875,12.186 L70.8875,14.727 C70.8875,14.874 71.0135,15 71.1395,15 Z M66.4565,14.475 C63.9995,14.475 61.9835,12.396 61.9835,9.834 C61.9835,7.293 63.9995,5.235 66.4565,5.235 C68.8085,5.235 70.8035,7.188 70.8875,9.645 L70.8875,9.834 C70.8875,12.396 68.8715,14.475 66.4565,14.475 Z M79.9595,15 C81.6815,15 83.2145,14.034 84.0965,12.669 C84.1805,12.543 84.1385,12.375 84.0335,12.312 C83.8865,12.249 83.7395,12.249 83.6555,12.375 C82.8785,13.635 81.5135,14.475 79.9595,14.475 C77.4815,14.454 75.4865,12.375 75.4865,9.855 L75.4865,9.792 L84.6425,9.792 C84.7685,9.792 84.8735,9.666 84.8945,9.54 L84.8945,9.456 C84.7055,6.789 82.5845,4.71 79.9595,4.71 C77.2085,4.71 75.0035,6.999 74.9615,9.855 C75.0035,12.669 77.2085,14.958 79.9595,15 Z M84.3695,9.288 L75.5075,9.288 C75.7805,6.999 77.6705,5.256 79.9595,5.256 C82.2065,5.256 84.0965,6.999 84.3695,9.288 Z M95.2895,15 C95.4365,15 95.5415,14.874 95.5415,14.727 L95.5415,8.469 L99.5945,8.469 C101.8415,8.469 103.6895,6.663 103.6895,4.395 C103.6895,2.127 101.8415,0.3 99.5945,0.3 L95.2895,0.3 C95.1425,0.3 95.0165,0.426 95.0165,0.573 L95.0165,14.727 C95.0165,14.874 95.1425,15 95.2895,15 Z M99.5945,7.923 L95.5415,7.923 L95.5415,0.825 L99.5945,0.825 C101.5475,0.825 103.1435,2.421 103.1435,4.395 C103.1435,6.369 101.5475,7.923 99.5945,7.923 Z M107.4485,15 C107.5955,15 107.7005,14.874 107.7005,14.727 L107.7005,0.573 C107.7005,0.426 107.5955,0.3 107.4485,0.3 C107.2805,0.3 107.1755,0.426 107.1755,0.573 L107.1755,14.727 C107.1755,14.874 107.2805,15 107.4485,15 Z M117.4655,15 C119.1875,15 120.7205,14.034 121.6025,12.669 C121.6865,12.543 121.6445,12.375 121.5395,12.312 C121.3925,12.249 121.2455,12.249 121.1615,12.375 C120.3845,13.635 119.0195,14.475 117.4655,14.475 C114.9875,14.454 112.9925,12.375 112.9925,9.855 L112.9925,9.792 L122.1485,9.792 C122.2745,9.792 122.3795,9.666 122.4005,9.54 L122.4005,9.456 C122.2115,6.789 120.0905,4.71 117.4655,4.71 C114.7145,4.71 112.5095,6.999 112.4675,9.855 C112.5095,12.669 114.7145,14.958 117.4655,15 Z M121.8755,9.288 L113.0135,9.288 C113.2865,6.999 115.1765,5.256 117.4655,5.256 C119.7125,5.256 121.6025,6.999 121.8755,9.288 Z M126.2855,2.421 C126.4115,2.421 126.5375,2.295 126.5375,2.169 L126.5375,1.665 C126.5375,1.497 126.4115,1.392 126.2855,1.392 C126.1175,1.392 126.0125,1.497 126.0125,1.665 L126.0125,2.169 C126.0125,2.295 126.1175,2.421 126.2855,2.421 Z M126.2855,15 C126.4115,15 126.5375,14.874 126.5375,14.727 L126.5375,4.962 C126.5375,4.794 126.4115,4.71 126.2855,4.71 C126.1175,4.71 126.0125,4.794 126.0125,4.962 L126.0125,14.727 C126.0125,14.874 126.1175,15 126.2855,15 Z M132.1655,15 C132.2495,15 132.3125,14.958 132.3545,14.895 C132.3965,14.853 132.4175,14.79 132.4175,14.727 L132.4175,8.868 C132.4175,6.831 134.0765,5.235 136.0505,5.235 C138.0245,5.235 139.6625,6.831 139.6625,8.868 L139.6625,14.727 C139.6625,14.874 139.7465,15 139.9145,15 C140.0615,15 140.1875,14.874 140.1875,14.727 L140.1875,8.868 C140.1875,6.558 138.3185,4.71 136.0505,4.71 C134.4965,4.71 133.1315,5.571 132.4175,6.852 L132.4175,4.962 C132.4175,4.794 132.3125,4.71 132.1655,4.71 C132.0185,4.71 131.8925,4.794 131.8925,4.962 L131.8925,14.769 C131.8925,14.811 131.9135,14.853 131.9345,14.874 C131.9345,14.895 131.9345,14.895 131.9555,14.916 C131.9765,14.937 131.9975,14.958 132.0185,14.958 C132.0395,14.979 132.0605,14.979 132.0815,15 L132.1655,15 Z M161.2295,14.958 C161.2505,14.958 161.2715,14.937 161.3135,14.937 C161.4395,14.874 161.5235,14.727 161.4605,14.58 L156.1685,0.468 C156.1055,0.363 156.0005,0.3 155.8955,0.3 C155.7695,0.279 155.6645,0.342 155.6225,0.468 L150.3305,14.58 C150.2675,14.727 150.3305,14.874 150.4565,14.937 C150.4985,14.937 150.5405,14.958 150.5615,14.958 C150.6665,14.958 150.7715,14.874 150.7925,14.769 L152.1995,11.01 L159.5495,11.01 L160.9565,14.769 C161.0195,14.874 161.1245,14.958 161.2295,14.958 Z M159.3395,10.464 L152.4095,10.464 L155.8745,1.266 L159.3395,10.464 Z M164.9255,2.421 C165.0515,2.421 165.1775,2.295 165.1775,2.169 L165.1775,1.665 C165.1775,1.497 165.0515,1.392 164.9255,1.392 C164.7575,1.392 164.6525,1.497 164.6525,1.665 L164.6525,2.169 C164.6525,2.295 164.7575,2.421 164.9255,2.421 Z M164.9255,15 C165.0515,15 165.1775,14.874 165.1775,14.727 L165.1775,4.962 C165.1775,4.794 165.0515,4.71 164.9255,4.71 C164.7575,4.71 164.6525,4.794 164.6525,4.962 L164.6525,14.727 C164.6525,14.874 164.7575,15 164.9255,15 Z M170.8055,15 C170.9735,15 171.0575,14.895 171.0575,14.727 L171.0575,9.918 C171.0575,9.918 171.1415,9.666 171.3095,9.204 C171.5825,8.553 172.0865,7.503 172.8215,6.663 C173.5145,5.886 174.5015,5.256 175.8035,5.256 C175.9715,5.256 176.0765,5.13 176.0765,4.983 C176.0765,4.836 175.9715,4.71 175.8035,4.71 C173.8295,4.71 172.5065,6.054 171.7085,7.251 C171.4355,7.671 171.2255,8.091 171.0575,8.469 L171.0575,4.983 C171.0575,4.836 170.9735,4.71 170.8055,4.71 C170.6795,4.71 170.5535,4.836 170.5535,4.983 L170.5535,9.792 C170.5325,9.855 170.5325,9.876 170.5535,9.918 L170.5535,14.727 C170.5535,14.895 170.6795,15 170.8055,15 Z" id="path-2"></path>
    </defs>
    <g id="Page-1" stroke="none" stroke-width="1" fill="none" fill-rule="evenodd">
        <g id="titrehome">
            <rect id="Rectangle" fill="#1E1E1E" fill-rule="nonzero" x="0" y="0" width="4000" height="4000"></rect>
            <g id="Group-5" transform="translate(1758.000000, 1827.000000)">
                <g id="Group-3" transform="translate(109.000000, 149.000000)" fill="#D8D8D8" fill-rule="nonzero">
                    <polygon id="Star" points="10 15 4.12214748 18.0901699 5.24471742 11.545085 0.489434837 6.90983006 7.06107374 5.95491503 10 0 12.9389263 5.95491503 19.5105652 6.90983006 14.7552826 11.545085 15.8778525 18.0901699"></polygon>
                    <polygon id="Star" points="270 15 264.122147 18.0901699 265.244717 11.545085 260.489435 6.90983006 267.061074 5.95491503 270 0 272.938926 5.95491503 279.510565 6.90983006 274.755283 11.545085 275.877853 18.0901699"></polygon>
                    <path d="M55.109375,16 L55.109375,13.734375 L54.4609375,13.734375 L54.4609375,3.7265625 L52.9453125,3.7265625 L51.546875,4.25 L51.546875,6.515625 L52.1953125,6.515625 L52.1953125,13.734375 L51.546875,13.734375 L51.546875,16 L55.109375,16 Z M63.3671875,16 L63.3671875,12.7421875 L61.1015625,12.7421875 L61.1015625,13.734375 L59.1171875,13.734375 L59.1171875,11 L62.21875,11 L62.21875,8.7265625 L59.1171875,8.7265625 L59.1171875,5.9921875 L61.1015625,5.9921875 L61.1015625,6.984375 L63.3671875,6.984375 L63.3671875,3.7265625 L56.203125,3.7265625 L56.203125,5.9921875 L56.8515625,5.9921875 L56.8515625,13.734375 L56.203125,13.734375 L56.203125,16 L63.3671875,16 Z M68.03125,16 L68.03125,13.734375 L67.3828125,13.734375 L67.3828125,11 L68.0546875,11 L69.984375,16 L72.4140625,16 L72.4140625,13.734375 L71.53125,13.734375 L70.453125,10.96875 L72,9.5234375 L72,5.015625 L70.5546875,3.7265625 L64.4609375,3.7265625 L64.4609375,5.9921875 L65.109375,5.9921875 L65.109375,13.734375 L64.4609375,13.734375 L64.4609375,16 L68.03125,16 Z M69.734375,8.7265625 L67.3828125,8.7265625 L67.3828125,5.9921875 L69.734375,5.9921875 L69.734375,8.7265625 Z M80.671875,16 L80.671875,12.7421875 L78.40625,12.7421875 L78.40625,13.734375 L76.421875,13.734375 L76.421875,11 L79.5234375,11 L79.5234375,8.7265625 L76.421875,8.7265625 L76.421875,5.9921875 L78.40625,5.9921875 L78.40625,6.984375 L80.671875,6.984375 L80.671875,3.7265625 L73.5078125,3.7265625 L73.5078125,5.9921875 L74.15625,5.9921875 L74.15625,13.734375 L73.5078125,13.734375 L73.5078125,16 L80.671875,16 Z M92.8359375,16 L92.8359375,12.7421875 L90.5703125,12.7421875 L90.5703125,13.734375 L88.5859375,13.734375 L88.5859375,11 L91.6875,11 L91.6875,8.7265625 L88.5859375,8.7265625 L88.5859375,5.9921875 L90.5703125,5.9921875 L90.5703125,6.984375 L92.8359375,6.984375 L92.8359375,3.7265625 L85.671875,3.7265625 L85.671875,5.9921875 L86.3203125,5.9921875 L86.3203125,13.734375 L85.671875,13.734375 L85.671875,16 L92.8359375,16 Z M100.15625,16 L101.625,14.7109375 L101.625,5.0234375 L100.15625,3.7265625 L93.9296875,3.7265625 L93.9296875,5.9921875 L94.578125,5.9921875 L94.578125,13.734375 L93.9296875,13.734375 L93.9296875,16 L100.15625,16 Z M99.359375,13.734375 L96.8515625,13.734375 L96.8515625,5.9921875 L99.359375,5.9921875 L99.359375,13.734375 Z M104.984375,16 L104.984375,13.734375 L102.71875,13.734375 L102.71875,16 L104.984375,16 Z M115.304688,15.984375 L116.765625,14.703125 L116.765625,9.1640625 L115.3125,7.890625 L112.257812,7.890625 L112.257812,5.9921875 L114.398438,5.9921875 L114.398438,6.984375 L116.671875,6.984375 L116.671875,3.7265625 L109.984375,3.7265625 L109.984375,8.875 L111.429688,10.15625 L114.492188,10.15625 L114.492188,13.734375 L112.25,13.734375 L112.25,12.7421875 L109.984375,12.7421875 L109.984375,14.703125 L111.429688,15.984375 L115.304688,15.984375 Z M125.335938,16 L125.335938,13.734375 L124.679688,13.734375 L124.875,12.7421875 L127.046875,12.7421875 L127.242188,13.734375 L126.601562,13.734375 L126.601562,16 L130.171875,16 L130.171875,13.734375 L129.554688,13.734375 L127.554688,3.7265625 L124.367188,3.7265625 L122.367188,13.734375 L121.765625,13.734375 L121.765625,16 L125.335938,16 Z M126.59375,10.4765625 L125.335938,10.4765625 L125.960938,7.328125 L126.59375,10.4765625 Z M136.601562,16 L138.085938,14.7109375 L138.085938,5.9921875 L138.734375,5.9921875 L138.734375,3.7265625 L135.164062,3.7265625 L135.164062,5.9921875 L135.820312,5.9921875 L135.820312,13.734375 L133.28125,13.734375 L133.28125,5.9921875 L133.929688,5.9921875 L133.929688,3.7265625 L130.367188,3.7265625 L130.367188,5.9921875 L131.015625,5.9921875 L131.015625,14.71875 L132.46875,16 L136.601562,16 Z M149.148438,16 L150.601562,14.71875 L150.601562,10.9375 L149.71875,9.8671875 L150.601562,8.7890625 L150.601562,5.015625 L149.148438,3.7265625 L145.1875,3.7265625 L143.734375,5.015625 L143.734375,8.7890625 L144.601562,9.8671875 L143.734375,10.9375 L143.734375,14.71875 L145.1875,16 L149.148438,16 Z M148.328125,8.7265625 L146,8.7265625 L146,5.9921875 L148.328125,5.9921875 L148.328125,8.7265625 Z M148.328125,13.734375 L146,13.734375 L146,11 L148.328125,11 L148.328125,13.734375 Z M159.171875,16 L159.171875,13.734375 L158.515625,13.734375 L158.710938,12.7421875 L160.882812,12.7421875 L161.078125,13.734375 L160.4375,13.734375 L160.4375,16 L164.007812,16 L164.007812,13.734375 L163.390625,13.734375 L161.390625,3.7265625 L158.203125,3.7265625 L156.203125,13.734375 L155.601562,13.734375 L155.601562,16 L159.171875,16 Z M160.429688,10.4765625 L159.171875,10.4765625 L159.796875,7.328125 L160.429688,10.4765625 Z M170.765625,16 L172.226562,14.71875 L172.226562,5.015625 L170.765625,3.7265625 L166.546875,3.7265625 L165.101562,5.015625 L165.101562,14.71875 L166.546875,16 L170.765625,16 Z M169.953125,13.734375 L167.367188,13.734375 L167.367188,5.9921875 L169.953125,5.9921875 L169.953125,13.734375 Z M179.554688,16 L181.039062,14.7109375 L181.039062,5.9921875 L181.6875,5.9921875 L181.6875,3.7265625 L178.117188,3.7265625 L178.117188,5.9921875 L178.773438,5.9921875 L178.773438,13.734375 L176.234375,13.734375 L176.234375,5.9921875 L176.882812,5.9921875 L176.882812,3.7265625 L173.320312,3.7265625 L173.320312,5.9921875 L173.96875,5.9921875 L173.96875,14.71875 L175.421875,16 L179.554688,16 Z M188.601562,16 L188.601562,13.734375 L187.953125,13.734375 L187.953125,5.9921875 L188.585938,5.9921875 L188.585938,6.984375 L190.851562,6.984375 L190.851562,3.7265625 L182.78125,3.7265625 L182.78125,6.984375 L185.046875,6.984375 L185.046875,5.9921875 L185.679688,5.9921875 L185.679688,13.734375 L185.03125,13.734375 L185.03125,16 L188.601562,16 Z M202.710938,16 L202.710938,12.7421875 L200.445312,12.7421875 L200.445312,13.734375 L198.117188,13.734375 L198.117188,11 L201.21875,11 L202.710938,9.7109375 L202.710938,5.0078125 L201.257812,3.7265625 L197.3125,3.7265625 L195.851562,5.0078125 L195.851562,6.984375 L198.140625,6.984375 L198.140625,5.9921875 L200.445312,5.9921875 L200.445312,8.7265625 L197.3125,8.7265625 L195.851562,10.0078125 L195.851562,16 L202.710938,16 Z M209.289062,16 L210.757812,14.71875 L210.757812,5.015625 L209.289062,3.7265625 L205.273438,3.7265625 L203.804688,5.015625 L203.804688,14.71875 L205.242188,16 L209.289062,16 Z M208.492188,13.734375 L206.070312,13.734375 L206.070312,5.9921875 L208.492188,5.9921875 L208.492188,13.734375 Z M218.710938,16 L218.710938,12.7421875 L216.445312,12.7421875 L216.445312,13.734375 L214.117188,13.734375 L214.117188,11 L217.21875,11 L218.710938,9.7109375 L218.710938,5.0078125 L217.257812,3.7265625 L213.3125,3.7265625 L211.851562,5.0078125 L211.851562,6.984375 L214.140625,6.984375 L214.140625,5.9921875 L216.445312,5.9921875 L216.445312,8.7265625 L213.3125,8.7265625 L211.851562,10.0078125 L211.851562,16 L218.710938,16 Z M225.289062,16 L226.757812,14.71875 L226.757812,5.015625 L225.289062,3.7265625 L221.273438,3.7265625 L219.804688,5.015625 L219.804688,14.71875 L221.242188,16 L225.289062,16 Z M224.492188,13.734375 L222.070312,13.734375 L222.070312,5.9921875 L224.492188,5.9921875 L224.492188,13.734375 Z" id="1ereed.5au8aout2020"></path>
                </g>
                <g id="Group-4" transform="translate(0.000000, 22.000000)" fill-rule="nonzero">
                    <rect id="Rectangle" fill="#D8D8D8" x="0" y="38" width="80" height="13"></rect>
                    <rect id="Rectangle" fill="#D8D8D8" x="399" y="38" width="80" height="13"></rect>
                    <rect id="Rectangle" fill="#D8D8D8" x="399" y="58" width="80" height="13"></rect>
                    <rect id="Rectangle" fill="#D8D8D8" x="399" y="78" width="80" height="13"></rect>
                    <rect id="Rectangle" fill="#D8D8D8" x="0" y="58" width="80" height="13"></rect>
                    <rect id="Rectangle" fill="#D8D8D8" x="0" y="78" width="80" height="13"></rect>
                    <g id="Festival" transform="translate(103.000000, 0.000000)">
                        <g>
                            <use fill="#000000" xlink:href="#path-1"></use>
                            <use fill="#D8D8D8" xlink:href="#path-1"></use>
                        </g>
                    </g>
                </g>
                <g id="Group-2" transform="translate(19.000000, 0.000000)">
                    <path d="M0,60 C69.7001728,20 143.200173,0 220.5,0 C297.799827,0 377.63316,20 460,60" id="Path"></path>
                    <g id="Films-de-Plein-Air" transform="translate(144.000000, 9.000000)" fill-rule="nonzero">
                        <g id="FilmsdePleinAir">
                            <use fill="#000000" xlink:href="#path-2"></use>
                            <use fill="#D8D8D8" xlink:href="#path-2"></use>
                        </g>
                    </g>
                </g>
            </g>
        </g>
    </g>
</svg>